<?xml version="1.0" encoding="UTF-8" standalone="no"?>
<!DOCTYPE svg PUBLIC "-//W3C//DTD SVG 1.1//EN"
 "http://www.w3.org/Graphics/SVG/1.1/DTD/svg11.dtd">
<!-- Generated by graphviz version 2.38.0 (20140413.2041)
 -->
<!-- Title: %3 Pages: 1 -->
<svg width="508pt" height="76pt"
 viewBox="0.00 0.00 508.00 76.00" xmlns="http://www.w3.org/2000/svg" xmlns:xlink="http://www.w3.org/1999/xlink">
<g id="graph0" class="graph" transform="scale(1 1) rotate(0) translate(4 72)">
<title>%3</title>
<polygon fill="white" stroke="none" points="-4,4 -4,-72 504,-72 504,4 -4,4"/>
<g id="clust1" class="cluster"><title>clusterLegend</title>
<polygon fill="none" stroke="black" stroke-dasharray="5,2" points="8,-8 8,-60 492,-60 492,-8 8,-8"/>
</g>
<!-- Object requiring \nadditional information -->
<g id="node1" class="node"><title>Object requiring \nadditional information</title>
<polygon fill="darkturquoise" stroke="lightgrey" points="232,-52 142,-52 142,-16 232,-16 232,-52"/>
<text text-anchor="middle" x="187" y="-36.8" font-family="Times" font-size="9.00">Object requiring </text>
<text text-anchor="middle" x="187" y="-26.8" font-family="Times" font-size="9.00">additional information</text>
</g>
<!-- Input for \nmain block -->
<g id="node4" class="node"><title>Input for \nmain block</title>
<polygon fill="lightblue" stroke="lightgrey" points="358,-52 268,-52 268,-16 358,-16 358,-52"/>
<text text-anchor="middle" x="313" y="-36.8" font-family="Times" font-size="9.00">Input for </text>
<text text-anchor="middle" x="313" y="-26.8" font-family="Times" font-size="9.00">main block</text>
</g>
<!-- Object requiring \nadditional information&#45;&gt;Input for \nmain block -->
<!-- Main block -->
<g id="node2" class="node"><title>Main block</title>
<polygon fill="lightgreen" stroke="lightgrey" points="484,-52 394,-52 394,-16 484,-16 484,-52"/>
<text text-anchor="middle" x="439" y="-31.8" font-family="Times" font-size="9.00">Main block</text>
</g>
<!-- Optional input -->
<g id="node3" class="node"><title>Optional input</title>
<polygon fill="none" stroke="black" stroke-dasharray="1,5" points="106,-52 16,-52 16,-16 106,-16 106,-52"/>
<text text-anchor="middle" x="61" y="-31.8" font-family="Times" font-size="9.00">Optional input</text>
</g>
<!-- Optional input&#45;&gt;Object requiring \nadditional information -->
<!-- Input for \nmain block&#45;&gt;Main block -->
</g>
</svg>
