<?xml version="1.0" encoding="UTF-8" standalone="no"?>
<!DOCTYPE svg PUBLIC "-//W3C//DTD SVG 1.1//EN"
 "http://www.w3.org/Graphics/SVG/1.1/DTD/svg11.dtd">
<!-- Generated by graphviz version 2.38.0 (20140413.2041)
 -->
<!-- Title: %3 Pages: 1 -->
<svg width="492pt" height="348pt"
 viewBox="0.00 0.00 492.00 348.00" xmlns="http://www.w3.org/2000/svg" xmlns:xlink="http://www.w3.org/1999/xlink">
<g id="graph0" class="graph" transform="scale(1 1) rotate(0) translate(4 344)">
<title>%3</title>
<polygon fill="white" stroke="none" points="-4,4 -4,-344 488,-344 488,4 -4,4"/>
<g id="clust2" class="cluster"><title>clusterEnvironmentSettings</title>
<polygon fill="none" stroke="black" stroke-dasharray="5,2" points="8,-154 8,-332 366,-332 366,-154 8,-154"/>
<text text-anchor="middle" x="187" y="-320.8" font-family="Times,serif" font-size="9.00">User&#45;defined environment settings</text>
</g>
<!-- NamedBodyMap -->
<g id="node1" class="node"><title>NamedBodyMap</title>
<g id="a_node1"><a xlink:href="http://tudat.tudelft.nl/tutorials/tudatFeatures/environmentSetup/index.html#NamedBodyMap" xlink:title="NamedBodyMap" target="_top">
<polygon fill="lightgreen" stroke="lightgreen" points="484,-90 394,-90 394,-54 484,-54 484,-90"/>
<text text-anchor="middle" x="439" y="-69.8" font-family="Times,serif" font-size="9.00">NamedBodyMap</text>
</a>
</g>
</g>
<!-- BodySettings -->
<g id="node2" class="node"><title>BodySettings</title>
<g id="a_node2"><a xlink:href="http://tudat.tudelft.nl/tutorials/tudatFeatures/environmentSetup/index.html#BodySettings" xlink:title="BodySettings" target="_top">
<polygon fill="lightblue" stroke="lightblue" points="484,-144 394,-144 394,-108 484,-108 484,-144"/>
<text text-anchor="middle" x="439" y="-123.8" font-family="Times,serif" font-size="9.00">BodySettings</text>
</a>
</g>
</g>
<!-- BodySettings&#45;&gt;NamedBodyMap -->
<g id="edge1" class="edge"><title>BodySettings&#45;&gt;NamedBodyMap</title>
<path fill="none" stroke="black" d="M439,-107.718C439,-107.718 439,-100.263 439,-100.263"/>
<polygon fill="black" stroke="black" points="442.5,-100.263 439,-90.2631 435.5,-100.263 442.5,-100.263"/>
</g>
<!-- GravityField\nVariationSettings -->
<g id="node3" class="node"><title>GravityField\nVariationSettings</title>
<g id="a_node3"><a xlink:href="http://tudat.tudelft.nl/tutorials/tudatFeatures/environmentSetup/index.html#GravityFieldVariationSettings" xlink:title="GravityField\nVariationSettings" target="_top">
<polygon fill="lightcoral" stroke="lightgrey" points="106,-306 16,-306 16,-270 106,-270 106,-306"/>
<text text-anchor="middle" x="61" y="-290.8" font-family="Times,serif" font-size="9.00">GravityField</text>
<text text-anchor="middle" x="61" y="-280.8" font-family="Times,serif" font-size="9.00">VariationSettings</text>
</a>
</g>
</g>
<!-- RotationModelSettings -->
<g id="node4" class="node"><title>RotationModelSettings</title>
<g id="a_node4"><a xlink:href="http://tudat.tudelft.nl/tutorials/tudatFeatures/environmentSetup/index.html#RotationModelSettings" xlink:title="RotationModelSettings" target="_top">
<polygon fill="lightgrey" stroke="lightgrey" points="232,-306 142,-306 142,-270 232,-270 232,-306"/>
<text text-anchor="middle" x="187" y="-285.8" font-family="Times,serif" font-size="9.00">RotationModelSettings</text>
</a>
</g>
</g>
<!-- GravityField\nVariationSettings&#45;&gt;RotationModelSettings -->
<!-- Aerodynamic\nCoefficientSettings -->
<g id="node5" class="node"><title>Aerodynamic\nCoefficientSettings</title>
<g id="a_node5"><a xlink:href="http://tudat.tudelft.nl/tutorials/tudatFeatures/environmentSetup/index.html#AerodynamicCoefficientSettings" xlink:title="Aerodynamic\nCoefficientSettings" target="_top">
<polygon fill="lightgrey" stroke="lightgrey" points="232,-252 142,-252 142,-216 232,-216 232,-252"/>
<text text-anchor="middle" x="187" y="-236.8" font-family="Times,serif" font-size="9.00">Aerodynamic</text>
<text text-anchor="middle" x="187" y="-226.8" font-family="Times,serif" font-size="9.00">CoefficientSettings</text>
</a>
</g>
</g>
<!-- BodyShapeSettings -->
<g id="node6" class="node"><title>BodyShapeSettings</title>
<g id="a_node6"><a xlink:href="http://tudat.tudelft.nl/tutorials/tudatFeatures/environmentSetup/index.html#BodyShapeSettings" xlink:title="BodyShapeSettings" target="_top">
<polygon fill="lightgrey" stroke="lightgrey" points="232,-198 142,-198 142,-162 232,-162 232,-198"/>
<text text-anchor="middle" x="187" y="-177.8" font-family="Times,serif" font-size="9.00">BodyShapeSettings</text>
</a>
</g>
</g>
<!-- EphemerisSettings -->
<g id="node10" class="node"><title>EphemerisSettings</title>
<g id="a_node10"><a xlink:href="http://tudat.tudelft.nl/tutorials/tudatFeatures/environmentSetup/index.html#EphemerisSettings" xlink:title="EphemerisSettings" target="_top">
<polygon fill="lightgrey" stroke="lightgrey" points="358,-306 268,-306 268,-270 358,-270 358,-306"/>
<text text-anchor="middle" x="313" y="-285.8" font-family="Times,serif" font-size="9.00">EphemerisSettings</text>
</a>
</g>
</g>
<!-- BodyShapeSettings&#45;&gt;EphemerisSettings -->
<!-- RadiationPressure\nInterfaceSettings -->
<g id="node7" class="node"><title>RadiationPressure\nInterfaceSettings</title>
<g id="a_node7"><a xlink:href="http://tudat.tudelft.nl/tutorials/tudatFeatures/environmentSetup/index.html#RadiationPressureInterfaceSettings" xlink:title="RadiationPressure\nInterfaceSettings" target="_top">
<polygon fill="lightcoral" stroke="lightgrey" points="106,-198 16,-198 16,-162 106,-162 106,-198"/>
<text text-anchor="middle" x="61" y="-182.8" font-family="Times,serif" font-size="9.00">RadiationPressure</text>
<text text-anchor="middle" x="61" y="-172.8" font-family="Times,serif" font-size="9.00">InterfaceSettings</text>
</a>
</g>
</g>
<!-- RadiationPressure\nInterfaceSettings&#45;&gt;BodyShapeSettings -->
<!-- AtmosphereSettings -->
<g id="node8" class="node"><title>AtmosphereSettings</title>
<g id="a_node8"><a xlink:href="http://tudat.tudelft.nl/tutorials/tudatFeatures/environmentSetup/index.html#AtmosphereSettings" xlink:title="AtmosphereSettings" target="_top">
<polygon fill="lightgrey" stroke="lightgrey" points="358,-252 268,-252 268,-216 358,-216 358,-252"/>
<text text-anchor="middle" x="313" y="-231.8" font-family="Times,serif" font-size="9.00">AtmosphereSettings</text>
</a>
</g>
</g>
<!-- GravityFieldSettings -->
<g id="node9" class="node"><title>GravityFieldSettings</title>
<g id="a_node9"><a xlink:href="http://tudat.tudelft.nl/tutorials/tudatFeatures/environmentSetup/index.html#GravityFieldSettings" xlink:title="GravityFieldSettings" target="_top">
<polygon fill="lightgrey" stroke="lightgrey" points="358,-198 268,-198 268,-162 358,-162 358,-198"/>
<text text-anchor="middle" x="313" y="-177.8" font-family="Times,serif" font-size="9.00">GravityFieldSettings</text>
</a>
</g>
</g>
<!-- EphemerisSettings&#45;&gt;BodySettings -->
<g id="edge3" class="edge"><title>EphemerisSettings&#45;&gt;BodySettings</title>
<path fill="none" stroke="black" d="M365.868,-288C400.354,-288 439,-288 439,-288 439,-288 439,-154.269 439,-154.269"/>
<polygon fill="black" stroke="black" points="442.5,-154.269 439,-144.269 435.5,-154.269 442.5,-154.269"/>
</g>
<!-- User&#45;defined \nbodies -->
<g id="node11" class="node"><title>User&#45;defined \nbodies</title>
<polygon fill="none" stroke="black" stroke-dasharray="1,5" points="358,-90 268,-90 268,-54 358,-54 358,-90"/>
<text text-anchor="middle" x="313" y="-74.8" font-family="Times,serif" font-size="9.00">User&#45;defined </text>
<text text-anchor="middle" x="313" y="-64.8" font-family="Times,serif" font-size="9.00">bodies</text>
</g>
<!-- User&#45;defined \nbodies&#45;&gt;NamedBodyMap -->
<g id="edge2" class="edge"><title>User&#45;defined \nbodies&#45;&gt;NamedBodyMap</title>
<path fill="none" stroke="black" d="M358.133,-72C358.133,-72 383.759,-72 383.759,-72"/>
<polygon fill="black" stroke="black" points="383.759,-75.5001 393.759,-72 383.759,-68.5001 383.759,-75.5001"/>
</g>
<!-- getDefaultBodySettings -->
<g id="node12" class="node"><title>getDefaultBodySettings</title>
<polygon fill="lightgrey" stroke="lightgrey" points="358,-144 268,-144 268,-108 358,-108 358,-144"/>
<text text-anchor="middle" x="313" y="-123.8" font-family="Times,serif" font-size="9.00">getDefaultBodySettings</text>
</g>
<!-- getDefaultBodySettings&#45;&gt;BodySettings -->
<g id="edge4" class="edge"><title>getDefaultBodySettings&#45;&gt;BodySettings</title>
<path fill="none" stroke="black" d="M358.133,-126C358.133,-126 383.759,-126 383.759,-126"/>
<polygon fill="black" stroke="black" points="383.759,-129.5 393.759,-126 383.759,-122.5 383.759,-129.5"/>
</g>
<!-- bodyNames -->
<g id="node13" class="node"><title>bodyNames</title>
<polygon fill="lightgrey" stroke="lightgrey" points="232,-144 142,-144 142,-108 232,-108 232,-144"/>
<text text-anchor="middle" x="187" y="-123.8" font-family="Times,serif" font-size="9.00">bodyNames</text>
</g>
<!-- bodyNames&#45;&gt;getDefaultBodySettings -->
<g id="edge5" class="edge"><title>bodyNames&#45;&gt;getDefaultBodySettings</title>
<path fill="none" stroke="black" d="M232.133,-132C232.133,-132 257.759,-132 257.759,-132"/>
<polygon fill="black" stroke="black" points="257.759,-135.5 267.759,-132 257.759,-128.5 257.759,-135.5"/>
</g>
<!-- (initial/final) time -->
<g id="node14" class="node"><title>(initial/final) time</title>
<polygon fill="none" stroke="black" stroke-dasharray="1,5" points="232,-90 142,-90 142,-54 232,-54 232,-90"/>
<text text-anchor="middle" x="187" y="-69.8" font-family="Times,serif" font-size="9.00">(initial/final) time</text>
</g>
<!-- (initial/final) time&#45;&gt;getDefaultBodySettings -->
<g id="edge6" class="edge"><title>(initial/final) time&#45;&gt;getDefaultBodySettings</title>
<path fill="none" stroke="black" d="M232.254,-72C245.26,-72 256,-72 256,-72 256,-72 256,-120 256,-120 256,-120 257.81,-120 257.81,-120"/>
<polygon fill="black" stroke="black" points="257.81,-123.5 267.81,-120 257.81,-116.5 257.81,-123.5"/>
</g>
<!-- setGlobalFrame\nBodyEphemerides -->
<g id="node15" class="node"><title>setGlobalFrame\nBodyEphemerides</title>
<polygon fill="lightgrey" stroke="lightgrey" points="358,-36 268,-36 268,-0 358,-0 358,-36"/>
<text text-anchor="middle" x="313" y="-20.8" font-family="Times,serif" font-size="9.00">setGlobalFrame</text>
<text text-anchor="middle" x="313" y="-10.8" font-family="Times,serif" font-size="9.00">BodyEphemerides</text>
</g>
<!-- setGlobalFrame\nBodyEphemerides&#45;&gt;NamedBodyMap -->
<g id="edge10" class="edge"><title>setGlobalFrame\nBodyEphemerides&#45;&gt;NamedBodyMap</title>
<path fill="none" stroke="black" d="M368.133,-18C368.133,-18 439,-18 439,-18 439,-18 439,-43.7181 439,-43.7181"/>
<polygon fill="black" stroke="black" points="368.133,-14.5001 358.133,-18 368.133,-21.5001 368.133,-14.5001"/>
<polygon fill="black" stroke="black" points="435.5,-43.718 439,-53.7181 442.5,-43.7181 435.5,-43.718"/>
</g>
<!-- Frame origin\n&amp; orientation -->
<g id="node16" class="node"><title>Frame origin\n&amp; orientation</title>
<polygon fill="lightgrey" stroke="lightgrey" points="232,-36 142,-36 142,-0 232,-0 232,-36"/>
<text text-anchor="middle" x="187" y="-20.8" font-family="Times,serif" font-size="9.00">Frame origin</text>
<text text-anchor="middle" x="187" y="-10.8" font-family="Times,serif" font-size="9.00">&amp; orientation</text>
</g>
<!-- Frame origin\n&amp; orientation&#45;&gt;setGlobalFrame\nBodyEphemerides -->
<g id="edge11" class="edge"><title>Frame origin\n&amp; orientation&#45;&gt;setGlobalFrame\nBodyEphemerides</title>
<path fill="none" stroke="black" d="M232.133,-18C232.133,-18 257.759,-18 257.759,-18"/>
<polygon fill="black" stroke="black" points="257.759,-21.5001 267.759,-18 257.759,-14.5001 257.759,-21.5001"/>
</g>
</g>
</svg>
