<?xml version="1.0" encoding="UTF-8" standalone="no"?>
<!DOCTYPE svg PUBLIC "-//W3C//DTD SVG 1.1//EN"
 "http://www.w3.org/Graphics/SVG/1.1/DTD/svg11.dtd">
<!-- Generated by graphviz version 2.38.0 (20140413.2041)
 -->
<!-- Title: %3 Pages: 1 -->
<svg width="510pt" height="390pt"
 viewBox="0.00 0.00 510.00 390.00" xmlns="http://www.w3.org/2000/svg" xmlns:xlink="http://www.w3.org/1999/xlink">
<g id="graph0" class="graph" transform="scale(1 1) rotate(0) translate(4 386)">
<title>%3</title>
<polygon fill="white" stroke="none" points="-4,4 -4,-386 506,-386 506,4 -4,4"/>
<g id="clust1" class="cluster"><title>clusterAccelerationType</title>
<polygon fill="none" stroke="black" stroke-dasharray="5,2" points="8,-160 8,-374 384,-374 384,-160 8,-160"/>
<text text-anchor="middle" x="196" y="-362.8" font-family="Times,serif" font-size="9.00">AccelerationType</text>
</g>
<!-- NamedBodyMap -->
<g id="node1" class="node"><title>NamedBodyMap</title>
<g id="a_node1"><a xlink:href="http://tudat.tudelft.nl/tutorials/tudatFeatures/environmentSetup/index.html#NamedBodyMap" xlink:title="NamedBodyMap" target="_top">
<polygon fill="lightblue" stroke="lightblue" points="124,-60 16,-60 16,-24 124,-24 124,-60"/>
<text text-anchor="middle" x="70" y="-39.8" font-family="Times,serif" font-size="9.00">NamedBodyMap</text>
</a>
</g>
</g>
<!-- AccelerationModel -->
<g id="node5" class="node"><title>AccelerationModel</title>
<g id="a_node5"><a xlink:href="http://tudat.tudelft.nl/tutorials/tudatFeatures/accelerationSetup/frameworkAcceleration.html##SelectedAccelerationMap" xlink:title="AccelerationModel" target="_top">
<polygon fill="lightgreen" stroke="lightgreen" points="502,-60 394,-60 394,-24 502,-24 502,-60"/>
<text text-anchor="middle" x="448" y="-39.8" font-family="Times,serif" font-size="9.00">AccelerationModel</text>
</a>
</g>
</g>
<!-- NamedBodyMap&#45;&gt;AccelerationModel -->
<g id="edge15" class="edge"><title>NamedBodyMap&#45;&gt;AccelerationModel</title>
<path fill="none" stroke="black" d="M70,-23.9445C70,-12.561 70,-0 70,-0 70,-0 466,-0 466,-0 466,-0 466,-13.9445 466,-13.9445"/>
<polygon fill="black" stroke="black" points="462.5,-13.9444 466,-23.9445 469.5,-13.9445 462.5,-13.9444"/>
</g>
<!-- bodiesToPropagate -->
<g id="node2" class="node"><title>bodiesToPropagate</title>
<polygon fill="lightblue" stroke="lightblue" points="376,-60 268,-60 268,-24 376,-24 376,-60"/>
<text text-anchor="middle" x="322" y="-39.8" font-family="Times,serif" font-size="9.00">bodiesToPropagate</text>
</g>
<!-- bodiesToPropagate&#45;&gt;AccelerationModel -->
<g id="edge13" class="edge"><title>bodiesToPropagate&#45;&gt;AccelerationModel</title>
<path fill="none" stroke="black" d="M376.167,-36C376.167,-36 383.879,-36 383.879,-36"/>
<polygon fill="black" stroke="black" points="383.879,-39.5001 393.879,-36 383.879,-32.5001 383.879,-39.5001"/>
</g>
<!-- centralBodies -->
<g id="node3" class="node"><title>centralBodies</title>
<polygon fill="lightblue" stroke="lightblue" points="250,-60 142,-60 142,-24 250,-24 250,-60"/>
<text text-anchor="middle" x="196" y="-39.8" font-family="Times,serif" font-size="9.00">centralBodies</text>
</g>
<!-- centralBodies&#45;&gt;AccelerationModel -->
<g id="edge14" class="edge"><title>centralBodies&#45;&gt;AccelerationModel</title>
<path fill="none" stroke="black" d="M196,-23.7985C196,-17.972 196,-13 196,-13 196,-13 430,-13 430,-13 430,-13 430,-14.0799 430,-14.0799"/>
<polygon fill="black" stroke="black" points="426.5,-13.7985 430,-23.7985 433.5,-13.7986 426.5,-13.7985"/>
</g>
<!-- AccelerationSettings -->
<g id="node4" class="node"><title>AccelerationSettings</title>
<g id="a_node4"><a xlink:href="http://tudat.tudelft.nl/tutorials/tudatFeatures/accelerationSetup/frameworkAcceleration.html#AccelerationSettings" xlink:title="AccelerationSettings" target="_top">
<polygon fill="lightblue" stroke="lightblue" points="376,-132 268,-132 268,-96 376,-96 376,-132"/>
<text text-anchor="middle" x="322" y="-111.8" font-family="Times,serif" font-size="9.00">AccelerationSettings</text>
</a>
</g>
</g>
<!-- AccelerationSettings&#45;&gt;bodiesToPropagate -->
<!-- AccelerationSettings&#45;&gt;AccelerationModel -->
<g id="edge12" class="edge"><title>AccelerationSettings&#45;&gt;AccelerationModel</title>
<path fill="none" stroke="black" d="M376.167,-114C410.317,-114 448,-114 448,-114 448,-114 448,-70.1686 448,-70.1686"/>
<polygon fill="black" stroke="black" points="451.5,-70.1686 448,-60.1686 444.5,-70.1687 451.5,-70.1686"/>
</g>
<!-- Empirical -->
<g id="node6" class="node"><title>Empirical</title>
<g id="a_node6"><a xlink:href="http://tudat.tudelft.nl/tutorials/tudatFeatures/accelerationSetup/frameworkAcceleration.html#EmpiricalAccelerationSettings" xlink:title="Empirical" target="_top">
<polygon fill="darkturquoise" stroke="darkturquoise" points="124,-348 16,-348 16,-312 124,-312 124,-348"/>
<text text-anchor="middle" x="70" y="-327.8" font-family="Times,serif" font-size="9.00">Empirical</text>
</a>
</g>
</g>
<!-- Thrust -->
<g id="node10" class="node"><title>Thrust</title>
<g id="a_node10"><a xlink:href="http://tudat.tudelft.nl/tutorials/tudatFeatures/accelerationSetup/frameworkAcceleration.html#ThrustAccelerationSettings" xlink:title="Thrust" target="_top">
<polygon fill="darkturquoise" stroke="darkturquoise" points="250,-276 142,-276 142,-240 250,-240 250,-276"/>
<text text-anchor="middle" x="196" y="-255.8" font-family="Times,serif" font-size="9.00">Thrust</text>
</a>
</g>
</g>
<!-- Empirical&#45;&gt;Thrust -->
<!-- Relativistic correction -->
<g id="node7" class="node"><title>Relativistic correction</title>
<g id="a_node7"><a xlink:href="http://tudat.tudelft.nl/tutorials/tudatFeatures/accelerationSetup/frameworkAcceleration.html#RelativisticAccelerationCorrectionSettings" xlink:title="Relativistic correction" target="_top">
<polygon fill="darkturquoise" stroke="darkturquoise" points="250,-348 142,-348 142,-312 250,-312 250,-348"/>
<text text-anchor="middle" x="196" y="-327.8" font-family="Times,serif" font-size="9.00">Relativistic correction</text>
</a>
</g>
</g>
<!-- Mutual spherical \nharmonic gravity -->
<g id="node8" class="node"><title>Mutual spherical \nharmonic gravity</title>
<g id="a_node8"><a xlink:href="http://tudat.tudelft.nl/tutorials/tudatFeatures/accelerationSetup/frameworkAcceleration.html#MutualSphericalHarmonicAccelerationSettings" xlink:title="Mutual spherical \nharmonic gravity" target="_top">
<polygon fill="darkturquoise" stroke="darkturquoise" points="376,-348 268,-348 268,-312 376,-312 376,-348"/>
<text text-anchor="middle" x="322" y="-332.8" font-family="Times,serif" font-size="9.00">Mutual spherical </text>
<text text-anchor="middle" x="322" y="-322.8" font-family="Times,serif" font-size="9.00">harmonic gravity</text>
</a>
</g>
</g>
<!-- Mutual spherical \nharmonic gravity&#45;&gt;bodiesToPropagate -->
<!-- Spherical harmonic \ngravity -->
<g id="node15" class="node"><title>Spherical harmonic \ngravity</title>
<g id="a_node15"><a xlink:href="http://tudat.tudelft.nl/tutorials/tudatFeatures/accelerationSetup/frameworkAcceleration.html#SphericalHarmonicAccelerationSettings" xlink:title="Spherical harmonic \ngravity" target="_top">
<polygon fill="lightgrey" stroke="lightgrey" points="376,-276 268,-276 268,-240 376,-240 376,-276"/>
<text text-anchor="middle" x="322" y="-260.8" font-family="Times,serif" font-size="9.00">Spherical harmonic </text>
<text text-anchor="middle" x="322" y="-250.8" font-family="Times,serif" font-size="9.00">gravity</text>
</a>
</g>
</g>
<!-- Mutual spherical \nharmonic gravity&#45;&gt;Spherical harmonic \ngravity -->
<!-- Tidal Dissipation -->
<g id="node9" class="node"><title>Tidal Dissipation</title>
<g id="a_node9"><a xlink:href="http://tudat.tudelft.nl/tutorials/tudatFeatures/accelerationSetup/frameworkAcceleration.html#DissipationAccelerationSettings" xlink:title="Tidal Dissipation" target="_top">
<polygon fill="darkturquoise" stroke="darkturquoise" points="124,-276 16,-276 16,-240 124,-240 124,-276"/>
<text text-anchor="middle" x="70" y="-255.8" font-family="Times,serif" font-size="9.00">Tidal Dissipation</text>
</a>
</g>
</g>
<!-- Aerodynamic -->
<g id="node14" class="node"><title>Aerodynamic</title>
<g id="a_node14"><a xlink:href="http://tudat.tudelft.nl/tutorials/tudatFeatures/accelerationSetup/frameworkAcceleration.html#MutualSphericalHarmonicAccelerationSettings" xlink:title="Aerodynamic" target="_top">
<polygon fill="lightgrey" stroke="lightgrey" points="124,-204 16,-204 16,-168 124,-168 124,-204"/>
<text text-anchor="middle" x="70" y="-183.8" font-family="Times,serif" font-size="9.00">Aerodynamic</text>
</a>
</g>
</g>
<!-- Thrust&#45;&gt;Aerodynamic -->
<!-- Additional \ninformation -->
<g id="node11" class="node"><title>Additional \ninformation</title>
<polygon fill="none" stroke="black" stroke-dasharray="1,5" points="124,-132 16,-132 16,-96 124,-96 124,-132"/>
<text text-anchor="middle" x="70" y="-116.8" font-family="Times,serif" font-size="9.00">Additional </text>
<text text-anchor="middle" x="70" y="-106.8" font-family="Times,serif" font-size="9.00">information</text>
</g>
<!-- Additional \ninformation&#45;&gt;NamedBodyMap -->
<!-- Additional \ninformation&#45;&gt;AccelerationSettings -->
<g id="edge10" class="edge"><title>Additional \ninformation&#45;&gt;AccelerationSettings</title>
<path fill="none" stroke="black" d="M124.06,-114C124.06,-114 257.595,-114 257.595,-114"/>
<polygon fill="black" stroke="black" points="257.595,-117.5 267.595,-114 257.595,-110.5 257.595,-117.5"/>
</g>
<!-- Cannon ball \nradiation pressure -->
<g id="node12" class="node"><title>Cannon ball \nradiation pressure</title>
<g id="a_node12"><a xlink:href="http://tudat.tudelft.nl/tutorials/tudatFeatures/accelerationSetup/frameworkAcceleration.html#MutualSphericalHarmonicAccelerationSettings" xlink:title="Cannon ball \nradiation pressure" target="_top">
<polygon fill="lightgrey" stroke="lightgrey" points="250,-204 142,-204 142,-168 250,-168 250,-204"/>
<text text-anchor="middle" x="196" y="-188.8" font-family="Times,serif" font-size="9.00">Cannon ball </text>
<text text-anchor="middle" x="196" y="-178.8" font-family="Times,serif" font-size="9.00">radiation pressure</text>
</a>
</g>
</g>
<!-- Central gravity -->
<g id="node13" class="node"><title>Central gravity</title>
<g id="a_node13"><a xlink:href="http://tudat.tudelft.nl/tutorials/tudatFeatures/accelerationSetup/frameworkAcceleration.html#AccelerationSettings" xlink:title="Central gravity" target="_top">
<polygon fill="lightgrey" stroke="lightgrey" points="376,-204 268,-204 268,-168 376,-168 376,-204"/>
<text text-anchor="middle" x="322" y="-183.8" font-family="Times,serif" font-size="9.00">Central gravity</text>
</a>
</g>
</g>
<!-- Cannon ball \nradiation pressure&#45;&gt;Central gravity -->
<!-- Central gravity&#45;&gt;AccelerationSettings -->
<g id="edge11" class="edge"><title>Central gravity&#45;&gt;AccelerationSettings</title>
<path fill="none" stroke="black" d="M322,-160.343C322,-152.845 322,-142.413 322,-142.413"/>
<polygon fill="black" stroke="black" points="325.5,-142.413 322,-132.413 318.5,-142.413 325.5,-142.413"/>
</g>
<!-- Aerodynamic&#45;&gt;Additional \ninformation -->
<!-- Spherical harmonic \ngravity&#45;&gt;Central gravity -->
</g>
</svg>
