<?xml version="1.0" encoding="UTF-8" standalone="no"?>
<!DOCTYPE svg PUBLIC "-//W3C//DTD SVG 1.1//EN"
 "http://www.w3.org/Graphics/SVG/1.1/DTD/svg11.dtd">
<!-- Generated by graphviz version 2.38.0 (20140413.2041)
 -->
<!-- Title: %3 Pages: 1 -->
<svg width="438pt" height="442pt"
 viewBox="0.00 0.00 438.00 442.00" xmlns="http://www.w3.org/2000/svg" xmlns:xlink="http://www.w3.org/1999/xlink">
<g id="graph0" class="graph" transform="scale(1 1) rotate(0) translate(4 438)">
<title>%3</title>
<polygon fill="white" stroke="none" points="-4,4 -4,-438 434,-438 434,4 -4,4"/>
<g id="clust1" class="cluster"><title>clusterIntegratorSettings</title>
<g id="a_clust1"><a xlink:href="http://tudat.tudelft.nl/tutorials/tudatFeatures/propagationSetup/integratorSettings.html" xlink:title="IntegratorSettings" target="_top">
<polygon fill="none" stroke="black" stroke-dasharray="5,2" points="8,-194 8,-426 276,-426 276,-194 8,-194"/>
<text text-anchor="middle" x="142" y="-414.8" font-family="Times,serif" font-size="9.00">IntegratorSettings</text>
</a>
</g>
</g>
<g id="clust2" class="cluster"><title>clusterPropagatorSettings</title>
<g id="a_clust2"><a xlink:href="http://tudat.tudelft.nl/tutorials/tudatFeatures/propagationSetup/propagatorSettings.html" xlink:title="PropagatorSettings" target="_top">
<polygon fill="none" stroke="black" stroke-dasharray="5,2" points="8,-8 8,-186 276,-186 276,-8 8,-8"/>
<text text-anchor="middle" x="142" y="-174.8" font-family="Times,serif" font-size="9.00">PropagatorSettings</text>
</a>
</g>
</g>
<!-- DynamicsSimulator -->
<g id="node1" class="node"><title>DynamicsSimulator</title>
<g id="a_node1"><a xlink:href="http://tudat.tudelft.nl/tutorials/tudatFeatures/propagationSetup/simulatorCreation.html#DynamicsSimulator" xlink:title="DynamicsSimulator" target="_top">
<polygon fill="lightgreen" stroke="lightgreen" points="430,-226 340,-226 340,-190 430,-190 430,-226"/>
<text text-anchor="middle" x="385" y="-205.8" font-family="Times,serif" font-size="9.00">DynamicsSimulator</text>
</a>
</g>
</g>
<!-- NamedBodyMap -->
<g id="node2" class="node"><title>NamedBodyMap</title>
<g id="a_node2"><a xlink:href="http://tudat.tudelft.nl/tutorials/tudatFeatures/environmentSetup/index.html#NamedBodyMap" xlink:title="NamedBodyMap" target="_top">
<polygon fill="lightblue" stroke="lightblue" points="430,-280 340,-280 340,-244 430,-244 430,-280"/>
<text text-anchor="middle" x="385" y="-259.8" font-family="Times,serif" font-size="9.00">NamedBodyMap</text>
</a>
</g>
</g>
<!-- NamedBodyMap&#45;&gt;DynamicsSimulator -->
<g id="edge11" class="edge"><title>NamedBodyMap&#45;&gt;DynamicsSimulator</title>
<path fill="none" stroke="black" d="M385,-243.718C385,-243.718 385,-236.263 385,-236.263"/>
<polygon fill="black" stroke="black" points="388.5,-236.263 385,-226.263 381.5,-236.263 388.5,-236.263"/>
</g>
<!-- IntegratorSettings -->
<g id="node3" class="node"><title>IntegratorSettings</title>
<g id="a_node3"><a xlink:href="http://tudat.tudelft.nl/tutorials/tudatFeatures/propagationSetup/integratorSettings.html#IntegratorSettings" xlink:title="IntegratorSettings" target="_top">
<polygon fill="lightgrey" stroke="lightgrey" points="268,-346 178,-346 178,-310 268,-310 268,-346"/>
<text text-anchor="middle" x="223" y="-325.8" font-family="Times,serif" font-size="9.00">IntegratorSettings</text>
</a>
</g>
</g>
<!-- IntegratorSettings&#45;&gt;DynamicsSimulator -->
<g id="edge12" class="edge"><title>IntegratorSettings&#45;&gt;DynamicsSimulator</title>
<path fill="none" stroke="black" d="M275.94,-328C291.29,-328 304,-328 304,-328 304,-328 304,-214 304,-214 304,-214 329.764,-214 329.764,-214"/>
<polygon fill="black" stroke="black" points="329.764,-217.5 339.764,-214 329.764,-210.5 329.764,-217.5"/>
</g>
<!-- RungeKuttaVariable\nStepSizeSettings -->
<g id="node4" class="node"><title>RungeKuttaVariable\nStepSizeSettings</title>
<g id="a_node4"><a xlink:href="http://tudat.tudelft.nl/tutorials/tudatFeatures/propagationSetup/integratorSettings.html#RungeKuttaVariableStepSizeSettings" xlink:title="RungeKuttaVariable\nStepSizeSettings" target="_top">
<polygon fill="lightgrey" stroke="lightgrey" points="268,-292 178,-292 178,-256 268,-256 268,-292"/>
<text text-anchor="middle" x="223" y="-276.8" font-family="Times,serif" font-size="9.00">RungeKuttaVariable</text>
<text text-anchor="middle" x="223" y="-266.8" font-family="Times,serif" font-size="9.00">StepSizeSettings</text>
</a>
</g>
</g>
<!-- TranslationalState -->
<g id="node5" class="node"><title>TranslationalState</title>
<g id="a_node5"><a xlink:href="http://tudat.tudelft.nl/tutorials/tudatFeatures/propagationSetup/propagatorSettings.html#TranslationalStatePropagatorSettings" xlink:title="TranslationalState" target="_top">
<polygon fill="lightgrey" stroke="lightgrey" points="106,-160 16,-160 16,-124 106,-124 106,-160"/>
<text text-anchor="middle" x="61" y="-139.8" font-family="Times,serif" font-size="9.00">TranslationalState</text>
</a>
</g>
</g>
<!-- RotationalState -->
<g id="node6" class="node"><title>RotationalState</title>
<g id="a_node6"><a xlink:href="http://tudat.tudelft.nl/tutorials/tudatFeatures/propagationSetup/propagatorSettings.html#RotationalStatePropagatorSettings" xlink:title="RotationalState" target="_top">
<polygon fill="lightgrey" stroke="lightgrey" points="268,-160 178,-160 178,-124 268,-124 268,-160"/>
<text text-anchor="middle" x="223" y="-139.8" font-family="Times,serif" font-size="9.00">RotationalState</text>
</a>
</g>
</g>
<!-- TranslationalState&#45;&gt;RotationalState -->
<!-- Mass -->
<g id="node7" class="node"><title>Mass</title>
<g id="a_node7"><a xlink:href="http://tudat.tudelft.nl/tutorials/tudatFeatures/propagationSetup/propagatorSettings.html#MassPropagatorSettings" xlink:title="Mass" target="_top">
<polygon fill="lightgrey" stroke="lightgrey" points="106,-106 16,-106 16,-70 106,-70 106,-106"/>
<text text-anchor="middle" x="61" y="-85.8" font-family="Times,serif" font-size="9.00">Mass</text>
</a>
</g>
</g>
<!-- Custom -->
<g id="node8" class="node"><title>Custom</title>
<g id="a_node8"><a xlink:href="http://tudat.tudelft.nl/tutorials/tudatFeatures/propagationSetup/propagatorSettings.html#CustomPropagatorSettings" xlink:title="Custom" target="_top">
<polygon fill="lightgrey" stroke="lightgrey" points="268,-106 178,-106 178,-70 268,-70 268,-106"/>
<text text-anchor="middle" x="223" y="-85.8" font-family="Times,serif" font-size="9.00">Custom</text>
</a>
</g>
</g>
<!-- Mass&#45;&gt;Custom -->
<!-- Custom&#45;&gt;DynamicsSimulator -->
<g id="edge13" class="edge"><title>Custom&#45;&gt;DynamicsSimulator</title>
<path fill="none" stroke="black" d="M275.579,-88C322.884,-88 385,-88 385,-88 385,-88 385,-179.775 385,-179.775"/>
<polygon fill="black" stroke="black" points="381.5,-179.775 385,-189.775 388.5,-179.775 381.5,-179.775"/>
</g>
<!-- MultiType -->
<g id="node9" class="node"><title>MultiType</title>
<g id="a_node9"><a xlink:href="http://tudat.tudelft.nl/tutorials/tudatFeatures/propagationSetup/propagatorSettings.html#MultiTypePropagatorSettings" xlink:title="MultiType" target="_top">
<polygon fill="lightgrey" stroke="lightgrey" points="106,-52 16,-52 16,-16 106,-16 106,-52"/>
<text text-anchor="middle" x="61" y="-31.8" font-family="Times,serif" font-size="9.00">MultiType</text>
</a>
</g>
</g>
<!-- MultiArc -->
<g id="node10" class="node"><title>MultiArc</title>
<g id="a_node10"><a xlink:href="http://tudat.tudelft.nl/tutorials/tudatFeatures/propagationSetup/propagatorSettings.html#MultiArcPropagatorSettings" xlink:title="MultiArc" target="_top">
<polygon fill="lightgrey" stroke="lightgrey" points="268,-52 178,-52 178,-16 268,-16 268,-52"/>
<text text-anchor="middle" x="223" y="-31.8" font-family="Times,serif" font-size="9.00">MultiArc</text>
</a>
</g>
</g>
<!-- MultiType&#45;&gt;MultiArc -->
<!-- integratorType -->
<g id="node11" class="node"><title>integratorType</title>
<polygon fill="lightgrey" stroke="lightgrey" points="106,-400 16,-400 16,-364 106,-364 106,-400"/>
<text text-anchor="middle" x="61" y="-379.8" font-family="Times,serif" font-size="9.00">integratorType</text>
</g>
<!-- integratorType&#45;&gt;IntegratorSettings -->
<g id="edge1" class="edge"><title>integratorType&#45;&gt;IntegratorSettings</title>
<path fill="none" stroke="black" d="M106.126,-388C154.061,-388 223,-388 223,-388 223,-388 223,-356.002 223,-356.002"/>
<polygon fill="black" stroke="black" points="226.5,-356.002 223,-346.002 219.5,-356.002 226.5,-356.002"/>
</g>
<!-- integratorType&#45;&gt;RungeKuttaVariable\nStepSizeSettings -->
<g id="edge4" class="edge"><title>integratorType&#45;&gt;RungeKuttaVariable\nStepSizeSettings</title>
<path fill="none" stroke="black" d="M106.236,-376C124.79,-376 142,-376 142,-376 142,-376 142,-284.8 142,-284.8 142,-284.8 167.764,-284.8 167.764,-284.8"/>
<polygon fill="black" stroke="black" points="167.764,-288.3 177.764,-284.8 167.764,-281.3 167.764,-288.3"/>
</g>
<!-- simulationStartEpoch -->
<g id="node12" class="node"><title>simulationStartEpoch</title>
<polygon fill="lightgrey" stroke="lightgrey" points="106,-346 16,-346 16,-310 106,-310 106,-346"/>
<text text-anchor="middle" x="61" y="-325.8" font-family="Times,serif" font-size="9.00">simulationStartEpoch</text>
</g>
<!-- simulationStartEpoch&#45;&gt;IntegratorSettings -->
<g id="edge2" class="edge"><title>simulationStartEpoch&#45;&gt;IntegratorSettings</title>
<path fill="none" stroke="black" d="M106.126,-337C106.126,-337 167.835,-337 167.835,-337"/>
<polygon fill="black" stroke="black" points="167.835,-340.5 177.835,-337 167.835,-333.5 167.835,-340.5"/>
</g>
<!-- simulationStartEpoch&#45;&gt;RungeKuttaVariable\nStepSizeSettings -->
<g id="edge5" class="edge"><title>simulationStartEpoch&#45;&gt;RungeKuttaVariable\nStepSizeSettings</title>
<path fill="none" stroke="black" d="M106.115,-328C116.213,-328 124,-328 124,-328 124,-328 124,-277.6 124,-277.6 124,-277.6 167.846,-277.6 167.846,-277.6"/>
<polygon fill="black" stroke="black" points="167.846,-281.1 177.846,-277.6 167.846,-274.1 167.846,-281.1"/>
</g>
<!-- (initial) stepSize -->
<g id="node13" class="node"><title>(initial) stepSize</title>
<polygon fill="lightgrey" stroke="lightgrey" points="106,-292 16,-292 16,-256 106,-256 106,-292"/>
<text text-anchor="middle" x="61" y="-271.8" font-family="Times,serif" font-size="9.00">(initial) stepSize</text>
</g>
<!-- (initial) stepSize&#45;&gt;IntegratorSettings -->
<g id="edge3" class="edge"><title>(initial) stepSize&#45;&gt;IntegratorSettings</title>
<path fill="none" stroke="black" d="M106.154,-270.4C132.265,-270.4 160,-270.4 160,-270.4 160,-270.4 160,-319 160,-319 160,-319 167.885,-319 167.885,-319"/>
<polygon fill="black" stroke="black" points="167.885,-322.5 177.885,-319 167.885,-315.5 167.885,-322.5"/>
</g>
<!-- (initial) stepSize&#45;&gt;RungeKuttaVariable\nStepSizeSettings -->
<g id="edge6" class="edge"><title>(initial) stepSize&#45;&gt;RungeKuttaVariable\nStepSizeSettings</title>
<path fill="none" stroke="black" d="M106.126,-263.2C106.126,-263.2 167.835,-263.2 167.835,-263.2"/>
<polygon fill="black" stroke="black" points="167.835,-266.7 177.835,-263.2 167.835,-259.7 167.835,-266.7"/>
</g>
<!-- min/max stepsize -->
<g id="node14" class="node"><title>min/max stepsize</title>
<polygon fill="lightgrey" stroke="lightgrey" points="106,-238 16,-238 16,-202 106,-202 106,-238"/>
<text text-anchor="middle" x="61" y="-217.8" font-family="Times,serif" font-size="9.00">min/max stepsize</text>
</g>
<!-- min/max stepsize&#45;&gt;RungeKuttaVariable\nStepSizeSettings -->
<g id="edge7" class="edge"><title>min/max stepsize&#45;&gt;RungeKuttaVariable\nStepSizeSettings</title>
<path fill="none" stroke="black" d="M106.126,-232C154.061,-232 223,-232 223,-232 223,-232 223,-245.944 223,-245.944"/>
<polygon fill="black" stroke="black" points="219.5,-245.944 223,-255.944 226.5,-245.945 219.5,-245.944"/>
</g>
</g>
</svg>
