<?xml version="1.0" encoding="UTF-8" standalone="no"?>
<!DOCTYPE svg PUBLIC "-//W3C//DTD SVG 1.1//EN"
 "http://www.w3.org/Graphics/SVG/1.1/DTD/svg11.dtd">
<!-- Generated by graphviz version 2.38.0 (20140413.2041)
 -->
<!-- Title: %3 Pages: 1 -->
<svg width="492pt" height="625pt"
 viewBox="0.00 0.00 492.00 625.00" xmlns="http://www.w3.org/2000/svg" xmlns:xlink="http://www.w3.org/1999/xlink">
<g id="graph0" class="graph" transform="scale(1 1) rotate(0) translate(4 621)">
<title>%3</title>
<polygon fill="white" stroke="none" points="-4,4 -4,-621 488,-621 488,4 -4,4"/>
<g id="clust1" class="cluster"><title>clusterPropagatorSettings</title>
<polygon fill="none" stroke="black" stroke-dasharray="5,2" points="134,-8 134,-168 240,-168 240,-8 134,-8"/>
</g>
<g id="clust2" class="cluster"><title>clusterNamedBodyMap</title>
<polygon fill="none" stroke="black" stroke-dasharray="5,2" points="8,-335 8,-441 240,-441 240,-335 8,-335"/>
</g>
<g id="clust5" class="cluster"><title>clusterAccelerationSettings</title>
<polygon fill="none" stroke="black" stroke-dasharray="5,2" points="8,-221 8,-327 114,-327 114,-221 8,-221"/>
</g>
<g id="clust6" class="cluster"><title>clusterIntegratorSettings</title>
<polygon fill="none" stroke="black" stroke-dasharray="5,2" points="134,-449 134,-609 240,-609 240,-449 134,-449"/>
</g>
<!-- DynamicsSimulator -->
<g id="node1" class="node"><title>DynamicsSimulator</title>
<g id="a_node1"><a xlink:href="http://tudat.tudelft.nl/tutorials/tudatFeatures/propagationSetup/simulatorCreation.html#DynamicsSimulator" xlink:title="DynamicsSimulator" target="_top">
<polygon fill="lightgreen" stroke="lightgreen" points="484,-322 394,-322 394,-286 484,-286 484,-322"/>
<text text-anchor="middle" x="439" y="-302.1" font-family="Times,serif" font-size="8.00">DynamicsSimulator</text>
</a>
</g>
</g>
<!-- IntegratorSettings -->
<g id="node2" class="node"><title>IntegratorSettings</title>
<g id="a_node2"><a xlink:href="http://tudat.tudelft.nl/tutorials/tudatFeatures/propagationSetup/integratorSettings.html#IntegratorSettings" xlink:title="IntegratorSettings" target="_top">
<polygon fill="lightblue" stroke="lightblue" points="358,-520 268,-520 268,-484 358,-484 358,-520"/>
<text text-anchor="middle" x="313" y="-500.1" font-family="Times,serif" font-size="8.00">IntegratorSettings</text>
</a>
</g>
</g>
<!-- IntegratorSettings&#45;&gt;DynamicsSimulator -->
<g id="edge3" class="edge"><title>IntegratorSettings&#45;&gt;DynamicsSimulator</title>
<path fill="none" stroke="black" d="M358.133,-502C394.287,-502 439,-502 439,-502 439,-502 439,-332.272 439,-332.272"/>
<polygon fill="black" stroke="black" points="442.5,-332.272 439,-322.272 435.5,-332.272 442.5,-332.272"/>
</g>
<!-- NamedBodyMap -->
<g id="node3" class="node"><title>NamedBodyMap</title>
<g id="a_node3"><a xlink:href="http://tudat.tudelft.nl/tutorials/tudatFeatures/environmentSetup/index.html#NamedBodyMap" xlink:title="NamedBodyMap" target="_top">
<polygon fill="lightblue" stroke="lightblue" points="358,-322 268,-322 268,-286 358,-286 358,-322"/>
<text text-anchor="middle" x="313" y="-302.1" font-family="Times,serif" font-size="8.00">NamedBodyMap</text>
</a>
</g>
</g>
<!-- NamedBodyMap&#45;&gt;DynamicsSimulator -->
<g id="edge1" class="edge"><title>NamedBodyMap&#45;&gt;DynamicsSimulator</title>
<path fill="none" stroke="black" d="M358.133,-304C358.133,-304 383.759,-304 383.759,-304"/>
<polygon fill="black" stroke="black" points="383.759,-307.5 393.759,-304 383.759,-300.5 383.759,-307.5"/>
</g>
<!-- PropagatorSettings -->
<g id="node4" class="node"><title>PropagatorSettings</title>
<g id="a_node4"><a xlink:href="http://tudat.tudelft.nl/tutorials/tudatFeatures/propagationSetup/propagatorSettings.html#PropagatorSettings" xlink:title="PropagatorSettings" target="_top">
<polygon fill="lightblue" stroke="lightblue" points="358,-214 268,-214 268,-178 358,-178 358,-214"/>
<text text-anchor="middle" x="313" y="-194.1" font-family="Times,serif" font-size="8.00">PropagatorSettings</text>
</a>
</g>
</g>
<!-- NamedBodyMap&#45;&gt;PropagatorSettings -->
<g id="edge4" class="edge"><title>NamedBodyMap&#45;&gt;PropagatorSettings</title>
<path fill="none" stroke="black" d="M267.883,-310C256.281,-310 247,-310 247,-310 247,-310 247,-206.8 247,-206.8 247,-206.8 257.883,-206.8 257.883,-206.8"/>
<polygon fill="black" stroke="black" points="257.883,-210.3 267.883,-206.8 257.883,-203.3 257.883,-210.3"/>
</g>
<!-- AccelerationModel -->
<g id="node5" class="node"><title>AccelerationModel</title>
<g id="a_node5"><a xlink:href="http://tudat.tudelft.nl/tutorials/tudatFeatures/accelerationSetup/frameworkAcceleration.html#SelectedAccelerationMap" xlink:title="AccelerationModel" target="_top">
<polygon fill="lightgrey" stroke="lightgrey" points="358,-268 268,-268 268,-232 358,-232 358,-268"/>
<text text-anchor="middle" x="313" y="-248.1" font-family="Times,serif" font-size="8.00">AccelerationModel</text>
</a>
</g>
</g>
<!-- NamedBodyMap&#45;&gt;AccelerationModel -->
<g id="edge20" class="edge"><title>NamedBodyMap&#45;&gt;AccelerationModel</title>
<path fill="none" stroke="black" d="M313,-285.718C313,-285.718 313,-278.263 313,-278.263"/>
<polygon fill="black" stroke="black" points="316.5,-278.263 313,-268.263 309.5,-278.263 316.5,-278.263"/>
</g>
<!-- PropagatorSettings&#45;&gt;DynamicsSimulator -->
<g id="edge2" class="edge"><title>PropagatorSettings&#45;&gt;DynamicsSimulator</title>
<path fill="none" stroke="black" d="M358.133,-196C394.287,-196 439,-196 439,-196 439,-196 439,-275.679 439,-275.679"/>
<polygon fill="black" stroke="black" points="435.5,-275.679 439,-285.679 442.5,-275.679 435.5,-275.679"/>
</g>
<!-- AccelerationModel&#45;&gt;PropagatorSettings -->
<g id="edge5" class="edge"><title>AccelerationModel&#45;&gt;PropagatorSettings</title>
<path fill="none" stroke="black" d="M313,-231.718C313,-231.718 313,-224.263 313,-224.263"/>
<polygon fill="black" stroke="black" points="316.5,-224.263 313,-214.263 309.5,-224.263 316.5,-224.263"/>
</g>
<!-- BodySettings -->
<g id="node6" class="node"><title>BodySettings</title>
<g id="a_node6"><a xlink:href="http://tudat.tudelft.nl/tutorials/tudatFeatures/environmentSetup/index.html#BodySettings" xlink:title="BodySettings" target="_top">
<polygon fill="lightgrey" stroke="lightgrey" points="232,-433 142,-433 142,-397 232,-397 232,-433"/>
<text text-anchor="middle" x="187" y="-413.1" font-family="Times,serif" font-size="8.00">BodySettings</text>
</a>
</g>
</g>
<!-- BodySettings&#45;&gt;NamedBodyMap -->
<g id="edge14" class="edge"><title>BodySettings&#45;&gt;NamedBodyMap</title>
<path fill="none" stroke="black" d="M232.133,-415C268.287,-415 313,-415 313,-415 313,-415 313,-332.329 313,-332.329"/>
<polygon fill="black" stroke="black" points="316.5,-332.329 313,-322.329 309.5,-332.329 316.5,-332.329"/>
</g>
<!-- AccelerationSettings -->
<g id="node7" class="node"><title>AccelerationSettings</title>
<g id="a_node7"><a xlink:href="http://tudat.tudelft.nl/tutorials/tudatFeatures/accelerationSetup/frameworkAcceleration.html#AccelerationSettings" xlink:title="AccelerationSettings" target="_top">
<polygon fill="lightgrey" stroke="lightgrey" points="232,-322 142,-322 142,-286 232,-286 232,-322"/>
<text text-anchor="middle" x="187" y="-302.1" font-family="Times,serif" font-size="8.00">AccelerationSettings</text>
</a>
</g>
</g>
<!-- AccelerationSettings&#45;&gt;AccelerationModel -->
<g id="edge17" class="edge"><title>AccelerationSettings&#45;&gt;AccelerationModel</title>
<path fill="none" stroke="black" d="M232.178,-298C247.585,-298 261,-298 261,-298 261,-298 261,-260.8 261,-260.8 261,-260.8 261.68,-260.8 261.68,-260.8"/>
<polygon fill="black" stroke="black" points="257.798,-264.3 267.798,-260.8 257.798,-257.3 257.798,-264.3"/>
</g>
<!-- TerminationSettings -->
<g id="node8" class="node"><title>TerminationSettings</title>
<g id="a_node8"><a xlink:href="http://tudat.tudelft.nl/tutorials/tudatFeatures/propagationSetup/propagatorSettingsTermination.html#PropagationTerminationSettings" xlink:title="TerminationSettings" target="_top">
<polygon fill="lightgrey" stroke="lightgrey" points="232,-106 142,-106 142,-70 232,-70 232,-106"/>
<text text-anchor="middle" x="187" y="-86.1" font-family="Times,serif" font-size="8.00">TerminationSettings</text>
</a>
</g>
</g>
<!-- TerminationSettings&#45;&gt;PropagatorSettings -->
<g id="edge8" class="edge"><title>TerminationSettings&#45;&gt;PropagatorSettings</title>
<path fill="none" stroke="black" d="M232.133,-88C268.287,-88 313,-88 313,-88 313,-88 313,-167.679 313,-167.679"/>
<polygon fill="black" stroke="black" points="309.5,-167.679 313,-177.679 316.5,-167.679 309.5,-167.679"/>
</g>
<!-- initialBodyStates -->
<g id="node9" class="node"><title>initialBodyStates</title>
<polygon fill="lightgrey" stroke="lightgrey" points="232,-52 142,-52 142,-16 232,-16 232,-52"/>
<text text-anchor="middle" x="187" y="-32.1" font-family="Times,serif" font-size="8.00">initialBodyStates</text>
</g>
<!-- initialBodyStates&#45;&gt;PropagatorSettings -->
<g id="edge6" class="edge"><title>initialBodyStates&#45;&gt;PropagatorSettings</title>
<path fill="none" stroke="black" d="M232.109,-34C275.964,-34 336,-34 336,-34 336,-34 336,-167.731 336,-167.731"/>
<polygon fill="black" stroke="black" points="332.5,-167.731 336,-177.731 339.5,-167.731 332.5,-167.731"/>
</g>
<!-- bodiesToPropagate -->
<g id="node10" class="node"><title>bodiesToPropagate</title>
<polygon fill="lightgrey" stroke="lightgrey" points="232,-268 142,-268 142,-232 232,-232 232,-268"/>
<text text-anchor="middle" x="187" y="-248.1" font-family="Times,serif" font-size="8.00">bodiesToPropagate</text>
</g>
<!-- bodiesToPropagate&#45;&gt;PropagatorSettings -->
<g id="edge7" class="edge"><title>bodiesToPropagate&#45;&gt;PropagatorSettings</title>
<path fill="none" stroke="black" d="M232.18,-246.4C236.891,-246.4 240,-246.4 240,-246.4 240,-246.4 240,-199.6 240,-199.6 240,-199.6 257.598,-199.6 257.598,-199.6"/>
<polygon fill="black" stroke="black" points="257.598,-203.1 267.598,-199.6 257.598,-196.1 257.598,-203.1"/>
</g>
<!-- bodiesToPropagate&#45;&gt;AccelerationModel -->
<g id="edge18" class="edge"><title>bodiesToPropagate&#45;&gt;AccelerationModel</title>
<path fill="none" stroke="black" d="M232.133,-253.6C232.133,-253.6 257.759,-253.6 257.759,-253.6"/>
<polygon fill="black" stroke="black" points="257.759,-257.1 267.759,-253.6 257.759,-250.1 257.759,-257.1"/>
</g>
<!-- centralBodies -->
<g id="node11" class="node"><title>centralBodies</title>
<polygon fill="lightgrey" stroke="lightgrey" points="232,-214 142,-214 142,-178 232,-178 232,-214"/>
<text text-anchor="middle" x="187" y="-194.1" font-family="Times,serif" font-size="8.00">centralBodies</text>
</g>
<!-- centralBodies&#45;&gt;PropagatorSettings -->
<g id="edge9" class="edge"><title>centralBodies&#45;&gt;PropagatorSettings</title>
<path fill="none" stroke="black" d="M232.133,-185.2C232.133,-185.2 257.759,-185.2 257.759,-185.2"/>
<polygon fill="black" stroke="black" points="257.759,-188.7 267.759,-185.2 257.759,-181.7 257.759,-188.7"/>
</g>
<!-- centralBodies&#45;&gt;AccelerationModel -->
<g id="edge19" class="edge"><title>centralBodies&#45;&gt;AccelerationModel</title>
<path fill="none" stroke="black" d="M232.062,-192.4C244.181,-192.4 254,-192.4 254,-192.4 254,-192.4 254,-239.2 254,-239.2 254,-239.2 257.982,-239.2 257.982,-239.2"/>
<polygon fill="black" stroke="black" points="257.982,-242.7 267.982,-239.2 257.982,-235.7 257.982,-242.7"/>
</g>
<!-- dependentVariables -->
<g id="node12" class="node"><title>dependentVariables</title>
<polygon fill="none" stroke="black" stroke-dasharray="1,5" points="232,-160 142,-160 142,-124 232,-124 232,-160"/>
<text text-anchor="middle" x="187" y="-140.1" font-family="Times,serif" font-size="8.00">dependentVariables</text>
</g>
<!-- dependentVariables&#45;&gt;PropagatorSettings -->
<g id="edge10" class="edge"><title>dependentVariables&#45;&gt;PropagatorSettings</title>
<path fill="none" stroke="black" d="M232.011,-142C260.118,-142 291,-142 291,-142 291,-142 291,-167.718 291,-167.718"/>
<polygon fill="black" stroke="black" points="287.5,-167.718 291,-177.718 294.5,-167.718 287.5,-167.718"/>
</g>
<!-- User&#45;defined \nenvironment settings -->
<g id="node13" class="node"><title>User&#45;defined \nenvironment settings</title>
<polygon fill="none" stroke="black" stroke-dasharray="1,5" points="232,-379 142,-379 142,-343 232,-343 232,-379"/>
<text text-anchor="middle" x="187" y="-363.6" font-family="Times,serif" font-size="8.00">User&#45;defined </text>
<text text-anchor="middle" x="187" y="-354.6" font-family="Times,serif" font-size="8.00">environment settings</text>
</g>
<!-- User&#45;defined \nenvironment settings&#45;&gt;BodySettings -->
<g id="edge11" class="edge"><title>User&#45;defined \nenvironment settings&#45;&gt;BodySettings</title>
<path fill="none" stroke="black" d="M187,-379.282C187,-379.282 187,-386.737 187,-386.737"/>
<polygon fill="black" stroke="black" points="183.5,-386.737 187,-396.737 190.5,-386.737 183.5,-386.737"/>
</g>
<!-- getDefaultSettings -->
<g id="node14" class="node"><title>getDefaultSettings</title>
<polygon fill="lightgrey" stroke="lightgrey" points="106,-433 16,-433 16,-397 106,-397 106,-433"/>
<text text-anchor="middle" x="61" y="-413.1" font-family="Times,serif" font-size="8.00">getDefaultSettings</text>
</g>
<!-- getDefaultSettings&#45;&gt;BodySettings -->
<g id="edge12" class="edge"><title>getDefaultSettings&#45;&gt;BodySettings</title>
<path fill="none" stroke="black" d="M106.133,-415C106.133,-415 131.759,-415 131.759,-415"/>
<polygon fill="black" stroke="black" points="131.759,-418.5 141.759,-415 131.759,-411.5 131.759,-418.5"/>
</g>
<!-- bodyNames -->
<g id="node15" class="node"><title>bodyNames</title>
<polygon fill="lightgrey" stroke="lightgrey" points="106,-379 16,-379 16,-343 106,-343 106,-379"/>
<text text-anchor="middle" x="61" y="-359.1" font-family="Times,serif" font-size="8.00">bodyNames</text>
</g>
<!-- bodyNames&#45;&gt;getDefaultSettings -->
<g id="edge13" class="edge"><title>bodyNames&#45;&gt;getDefaultSettings</title>
<path fill="none" stroke="black" d="M61,-379.282C61,-379.282 61,-386.737 61,-386.737"/>
<polygon fill="black" stroke="black" points="57.5001,-386.737 61,-396.737 64.5001,-386.737 57.5001,-386.737"/>
</g>
<!-- accelerationType -->
<g id="node16" class="node"><title>accelerationType</title>
<polygon fill="lightgrey" stroke="lightgrey" points="106,-319 16,-319 16,-283 106,-283 106,-319"/>
<text text-anchor="middle" x="61" y="-299.1" font-family="Times,serif" font-size="8.00">accelerationType</text>
</g>
<!-- accelerationType&#45;&gt;AccelerationSettings -->
<g id="edge15" class="edge"><title>accelerationType&#45;&gt;AccelerationSettings</title>
<path fill="none" stroke="black" d="M106.133,-308C106.133,-308 131.759,-308 131.759,-308"/>
<polygon fill="black" stroke="black" points="131.759,-311.5 141.759,-308 131.759,-304.5 131.759,-311.5"/>
</g>
<!-- Additional \ninformation -->
<g id="node17" class="node"><title>Additional \ninformation</title>
<polygon fill="none" stroke="black" stroke-dasharray="1,5" points="106,-265 16,-265 16,-229 106,-229 106,-265"/>
<text text-anchor="middle" x="61" y="-249.6" font-family="Times,serif" font-size="8.00">Additional </text>
<text text-anchor="middle" x="61" y="-240.6" font-family="Times,serif" font-size="8.00">information</text>
</g>
<!-- Additional \ninformation&#45;&gt;AccelerationSettings -->
<g id="edge16" class="edge"><title>Additional \ninformation&#45;&gt;AccelerationSettings</title>
<path fill="none" stroke="black" d="M106.115,-248.5C116.213,-248.5 124,-248.5 124,-248.5 124,-248.5 124,-297 124,-297 124,-297 131.885,-297 131.885,-297"/>
<polygon fill="black" stroke="black" points="131.885,-300.5 141.885,-297 131.885,-293.5 131.885,-300.5"/>
</g>
<!-- integratorType -->
<g id="node18" class="node"><title>integratorType</title>
<polygon fill="lightgrey" stroke="lightgrey" points="232,-547 142,-547 142,-511 232,-511 232,-547"/>
<text text-anchor="middle" x="187" y="-527.1" font-family="Times,serif" font-size="8.00">integratorType</text>
</g>
<!-- integratorType&#45;&gt;IntegratorSettings -->
<g id="edge21" class="edge"><title>integratorType&#45;&gt;IntegratorSettings</title>
<path fill="none" stroke="black" d="M232.133,-515.5C232.133,-515.5 257.759,-515.5 257.759,-515.5"/>
<polygon fill="black" stroke="black" points="257.759,-519 267.759,-515.5 257.759,-512 257.759,-519"/>
</g>
<!-- simulationStartEpoch -->
<g id="node19" class="node"><title>simulationStartEpoch</title>
<polygon fill="lightgrey" stroke="lightgrey" points="232,-493 142,-493 142,-457 232,-457 232,-493"/>
<text text-anchor="middle" x="187" y="-473.1" font-family="Times,serif" font-size="8.00">simulationStartEpoch</text>
</g>
<!-- simulationStartEpoch&#45;&gt;IntegratorSettings -->
<g id="edge22" class="edge"><title>simulationStartEpoch&#45;&gt;IntegratorSettings</title>
<path fill="none" stroke="black" d="M232.133,-488.5C232.133,-488.5 257.759,-488.5 257.759,-488.5"/>
<polygon fill="black" stroke="black" points="257.759,-492 267.759,-488.5 257.759,-485 257.759,-492"/>
</g>
<!-- (initial) stepSize -->
<g id="node20" class="node"><title>(initial) stepSize</title>
<polygon fill="lightgrey" stroke="lightgrey" points="232,-601 142,-601 142,-565 232,-565 232,-601"/>
<text text-anchor="middle" x="187" y="-581.1" font-family="Times,serif" font-size="8.00">(initial) stepSize</text>
</g>
<!-- (initial) stepSize&#45;&gt;IntegratorSettings -->
<g id="edge23" class="edge"><title>(initial) stepSize&#45;&gt;IntegratorSettings</title>
<path fill="none" stroke="black" d="M232.133,-583C268.287,-583 313,-583 313,-583 313,-583 313,-530.38 313,-530.38"/>
<polygon fill="black" stroke="black" points="316.5,-530.38 313,-520.38 309.5,-530.38 316.5,-530.38"/>
</g>
</g>
</svg>
