<?xml version="1.0" encoding="UTF-8" standalone="no"?>
<!DOCTYPE svg PUBLIC "-//W3C//DTD SVG 1.1//EN"
 "http://www.w3.org/Graphics/SVG/1.1/DTD/svg11.dtd">
<!-- Generated by graphviz version 2.38.0 (20140413.2041)
 -->
<!-- Title: %3 Pages: 1 -->
<svg width="492pt" height="240pt"
 viewBox="0.00 0.00 492.00 240.00" xmlns="http://www.w3.org/2000/svg" xmlns:xlink="http://www.w3.org/1999/xlink">
<g id="graph0" class="graph" transform="scale(1 1) rotate(0) translate(4 236)">
<title>%3</title>
<polygon fill="white" stroke="none" points="-4,4 -4,-236 488,-236 488,4 -4,4"/>
<g id="clust2" class="cluster"><title>clusterEnvironmentSettings</title>
<polygon fill="none" stroke="black" stroke-dasharray="5,2" points="8,-46 8,-224 366,-224 366,-46 8,-46"/>
<text text-anchor="middle" x="187" y="-212.8" font-family="Times,serif" font-size="9.00">User&#45;defined environment settings</text>
</g>
<!-- NamedBodyMap -->
<g id="node1" class="node"><title>NamedBodyMap</title>
<g id="a_node1"><a xlink:href="http://tudat.tudelft.nl/tutorials/tudatFeatures/environmentSetup/index.html#NamedBodyMap" xlink:title="NamedBodyMap" target="_top">
<polygon fill="lightgreen" stroke="lightgreen" points="484,-63 394,-63 394,-27 484,-27 484,-63"/>
<text text-anchor="middle" x="439" y="-42.8" font-family="Times,serif" font-size="9.00">NamedBodyMap</text>
</a>
</g>
</g>
<!-- BodySettings -->
<g id="node2" class="node"><title>BodySettings</title>
<g id="a_node2"><a xlink:href="http://tudat.tudelft.nl/tutorials/tudatFeatures/environmentSetup/index.html#BodySettings" xlink:title="BodySettings" target="_top">
<polygon fill="lightblue" stroke="lightblue" points="484,-117 394,-117 394,-81 484,-81 484,-117"/>
<text text-anchor="middle" x="439" y="-96.8" font-family="Times,serif" font-size="9.00">BodySettings</text>
</a>
</g>
</g>
<!-- BodySettings&#45;&gt;NamedBodyMap -->
<g id="edge1" class="edge"><title>BodySettings&#45;&gt;NamedBodyMap</title>
<path fill="none" stroke="black" d="M439,-80.7181C439,-80.7181 439,-73.2631 439,-73.2631"/>
<polygon fill="black" stroke="black" points="442.5,-73.2631 439,-63.2631 435.5,-73.2631 442.5,-73.2631"/>
</g>
<!-- GravityField\nVariationSettings -->
<g id="node3" class="node"><title>GravityField\nVariationSettings</title>
<g id="a_node3"><a xlink:href="http://tudat.tudelft.nl/tutorials/tudatFeatures/environmentSetup/index.html#GravityFieldVariationSettings" xlink:title="GravityField\nVariationSettings" target="_top">
<polygon fill="lightgrey" stroke="lightgrey" points="106,-198 16,-198 16,-162 106,-162 106,-198"/>
<text text-anchor="middle" x="61" y="-182.8" font-family="Times,serif" font-size="9.00">GravityField</text>
<text text-anchor="middle" x="61" y="-172.8" font-family="Times,serif" font-size="9.00">VariationSettings</text>
</a>
</g>
</g>
<!-- RotationModelSettings -->
<g id="node4" class="node"><title>RotationModelSettings</title>
<g id="a_node4"><a xlink:href="http://tudat.tudelft.nl/tutorials/tudatFeatures/environmentSetup/index.html#RotationalModelSettings" xlink:title="RotationModelSettings" target="_top">
<polygon fill="lightgrey" stroke="lightgrey" points="106,-144 16,-144 16,-108 106,-108 106,-144"/>
<text text-anchor="middle" x="61" y="-123.8" font-family="Times,serif" font-size="9.00">RotationModelSettings</text>
</a>
</g>
</g>
<!-- BodyShapeSettings -->
<g id="node6" class="node"><title>BodyShapeSettings</title>
<g id="a_node6"><a xlink:href="http://tudat.tudelft.nl/tutorials/tudatFeatures/environmentSetup/index.html#BodyShapeSettings" xlink:title="BodyShapeSettings" target="_top">
<polygon fill="lightgrey" stroke="lightgrey" points="232,-198 142,-198 142,-162 232,-162 232,-198"/>
<text text-anchor="middle" x="187" y="-177.8" font-family="Times,serif" font-size="9.00">BodyShapeSettings</text>
</a>
</g>
</g>
<!-- RotationModelSettings&#45;&gt;BodyShapeSettings -->
<!-- Aerodynamic\nCoefficientSettings -->
<g id="node5" class="node"><title>Aerodynamic\nCoefficientSettings</title>
<g id="a_node5"><a xlink:href="http://tudat.tudelft.nl/tutorials/tudatFeatures/environmentSetup/index.html#AeroDynamicCoefficientSettings" xlink:title="Aerodynamic\nCoefficientSettings" target="_top">
<polygon fill="lightgrey" stroke="lightgrey" points="106,-90 16,-90 16,-54 106,-54 106,-90"/>
<text text-anchor="middle" x="61" y="-74.8" font-family="Times,serif" font-size="9.00">Aerodynamic</text>
<text text-anchor="middle" x="61" y="-64.8" font-family="Times,serif" font-size="9.00">CoefficientSettings</text>
</a>
</g>
</g>
<!-- EphemerisSettings -->
<g id="node11" class="node"><title>EphemerisSettings</title>
<g id="a_node11"><a xlink:href="http://tudat.tudelft.nl/tutorials/tudatFeatures/environmentSetup/index.html#EphemerisSettings" xlink:title="EphemerisSettings" target="_top">
<polygon fill="lightgrey" stroke="lightgrey" points="358,-198 268,-198 268,-162 358,-162 358,-198"/>
<text text-anchor="middle" x="313" y="-177.8" font-family="Times,serif" font-size="9.00">EphemerisSettings</text>
</a>
</g>
</g>
<!-- BodyShapeSettings&#45;&gt;EphemerisSettings -->
<!-- TorqueSettings -->
<g id="node7" class="node"><title>TorqueSettings</title>
<g id="a_node7"><a xlink:href="http://tudat.tudelft.nl/tutorials/tudatFeatures/environmentSetup/index.html#TorqueSettings" xlink:title="TorqueSettings" target="_top">
<polygon fill="lightgrey" stroke="lightgrey" points="232,-144 142,-144 142,-108 232,-108 232,-144"/>
<text text-anchor="middle" x="187" y="-123.8" font-family="Times,serif" font-size="9.00">TorqueSettings</text>
</a>
</g>
</g>
<!-- RadiationPressure\nInterfaceSettings -->
<g id="node8" class="node"><title>RadiationPressure\nInterfaceSettings</title>
<g id="a_node8"><a xlink:href="http://tudat.tudelft.nl/tutorials/tudatFeatures/environmentSetup/index.html#RadiationPressureInterfaceSettings" xlink:title="RadiationPressure\nInterfaceSettings" target="_top">
<polygon fill="lightgrey" stroke="lightgrey" points="232,-90 142,-90 142,-54 232,-54 232,-90"/>
<text text-anchor="middle" x="187" y="-74.8" font-family="Times,serif" font-size="9.00">RadiationPressure</text>
<text text-anchor="middle" x="187" y="-64.8" font-family="Times,serif" font-size="9.00">InterfaceSettings</text>
</a>
</g>
</g>
<!-- AtmosphereSettings -->
<g id="node9" class="node"><title>AtmosphereSettings</title>
<g id="a_node9"><a xlink:href="http://tudat.tudelft.nl/tutorials/tudatFeatures/environmentSetup/index.html#AtmosphereSettings" xlink:title="AtmosphereSettings" target="_top">
<polygon fill="lightgrey" stroke="lightgrey" points="358,-144 268,-144 268,-108 358,-108 358,-144"/>
<text text-anchor="middle" x="313" y="-123.8" font-family="Times,serif" font-size="9.00">AtmosphereSettings</text>
</a>
</g>
</g>
<!-- GravityFieldSettings -->
<g id="node10" class="node"><title>GravityFieldSettings</title>
<g id="a_node10"><a xlink:href="http://tudat.tudelft.nl/tutorials/tudatFeatures/environmentSetup/index.html#GravityFieldSettings" xlink:title="GravityFieldSettings" target="_top">
<polygon fill="lightgrey" stroke="lightgrey" points="358,-90 268,-90 268,-54 358,-54 358,-90"/>
<text text-anchor="middle" x="313" y="-69.8" font-family="Times,serif" font-size="9.00">GravityFieldSettings</text>
</a>
</g>
</g>
<!-- EphemerisSettings&#45;&gt;BodySettings -->
<g id="edge2" class="edge"><title>EphemerisSettings&#45;&gt;BodySettings</title>
<path fill="none" stroke="black" d="M365.868,-180C400.354,-180 439,-180 439,-180 439,-180 439,-127.38 439,-127.38"/>
<polygon fill="black" stroke="black" points="442.5,-127.38 439,-117.38 435.5,-127.38 442.5,-127.38"/>
</g>
<!-- getDefaultSettings -->
<g id="node12" class="node"><title>getDefaultSettings</title>
<polygon fill="lightgrey" stroke="lightgrey" points="358,-36 268,-36 268,-0 358,-0 358,-36"/>
<text text-anchor="middle" x="313" y="-15.8" font-family="Times,serif" font-size="9.00">getDefaultSettings</text>
</g>
<!-- getDefaultSettings&#45;&gt;BodySettings -->
<g id="edge3" class="edge"><title>getDefaultSettings&#45;&gt;BodySettings</title>
<path fill="none" stroke="black" d="M358.115,-31.5C368.213,-31.5 376,-31.5 376,-31.5 376,-31.5 376,-85.5 376,-85.5 376,-85.5 383.885,-85.5 383.885,-85.5"/>
<polygon fill="black" stroke="black" points="383.885,-89.0001 393.885,-85.5 383.885,-82.0001 383.885,-89.0001"/>
</g>
<!-- bodyNames -->
<g id="node13" class="node"><title>bodyNames</title>
<polygon fill="lightgrey" stroke="lightgrey" points="232,-36 142,-36 142,-0 232,-0 232,-36"/>
<text text-anchor="middle" x="187" y="-15.8" font-family="Times,serif" font-size="9.00">bodyNames</text>
</g>
<!-- bodyNames&#45;&gt;getDefaultSettings -->
<g id="edge4" class="edge"><title>bodyNames&#45;&gt;getDefaultSettings</title>
<path fill="none" stroke="black" d="M232.133,-18C232.133,-18 257.759,-18 257.759,-18"/>
<polygon fill="black" stroke="black" points="257.759,-21.5001 267.759,-18 257.759,-14.5001 257.759,-21.5001"/>
</g>
</g>
</svg>
