<?xml version="1.0" encoding="UTF-8" standalone="no"?>
<!DOCTYPE svg PUBLIC "-//W3C//DTD SVG 1.1//EN"
 "http://www.w3.org/Graphics/SVG/1.1/DTD/svg11.dtd">
<!-- Generated by graphviz version 2.38.0 (20140413.2041)
 -->
<!-- Title: %3 Pages: 1 -->
<svg width="542pt" height="514pt"
 viewBox="0.00 0.00 542.00 514.00" xmlns="http://www.w3.org/2000/svg" xmlns:xlink="http://www.w3.org/1999/xlink">
<g id="graph0" class="graph" transform="scale(1 1) rotate(0) translate(4 510)">
<title>%3</title>
<polygon fill="white" stroke="none" points="-4,4 -4,-510 538,-510 538,4 -4,4"/>
<g id="clust1" class="cluster"><title>clusterIntegratorSettings</title>
<g id="a_clust1"><a xlink:href="http://tudat.tudelft.nl/tutorials/tudatFeatures/propagationSetup/integratorSettings.html" xlink:title="IntegratorSettings" target="_top">
<polygon fill="none" stroke="black" stroke-dasharray="5,2" points="8,-230 8,-462 240,-462 240,-230 8,-230"/>
<text text-anchor="middle" x="124" y="-450.8" font-family="Times,serif" font-size="9.00">IntegratorSettings</text>
</a>
</g>
</g>
<g id="clust2" class="cluster"><title>clusterSingleArcPropagatorSettings</title>
<g id="a_clust2"><a xlink:href="http://tudat.tudelft.nl/tutorials/tudatFeatures/propagationSetup/propagatorSettings.html" xlink:title="Single&#45;arc PropagatorSettings" target="_top">
<polygon fill="none" stroke="black" stroke-dasharray="5,2" points="8,-44 8,-222 240,-222 240,-44 8,-44"/>
<text text-anchor="middle" x="124" y="-210.8" font-family="Times,serif" font-size="9.00">Single&#45;arc PropagatorSettings</text>
</a>
</g>
</g>
<!-- DynamicsSimulator -->
<g id="node1" class="node"><title>DynamicsSimulator</title>
<g id="a_node1"><a xlink:href="http://tudat.tudelft.nl/tutorials/tudatFeatures/propagationSetup/simulatorCreation.html#DynamicsSimulator" xlink:title="DynamicsSimulator" target="_top">
<polygon fill="lightgreen" stroke="lightgreen" points="408,-273 318,-273 318,-237 408,-237 408,-273"/>
<text text-anchor="middle" x="363" y="-252.8" font-family="FontAwesome" font-size="9.00">DynamicsSimulator</text>
</a>
</g>
</g>
<!-- DependentVariable(s)\nNumerical Solution -->
<g id="node6" class="node"><title>DependentVariable(s)\nNumerical Solution</title>
<polygon fill="peachpuff" stroke="peachpuff" points="534,-300 444,-300 444,-264 534,-264 534,-300"/>
<text text-anchor="middle" x="489" y="-284.8" font-family="FontAwesome" font-size="9.00">DependentVariable(s)</text>
<text text-anchor="middle" x="489" y="-274.8" font-family="FontAwesome" font-size="9.00">Numerical Solution</text>
</g>
<!-- DynamicsSimulator&#45;&gt;DependentVariable(s)\nNumerical Solution -->
<g id="edge18" class="edge"><title>DynamicsSimulator&#45;&gt;DependentVariable(s)\nNumerical Solution</title>
<path fill="none" stroke="black" d="M408.133,-268.5C408.133,-268.5 433.759,-268.5 433.759,-268.5"/>
<polygon fill="black" stroke="black" points="433.759,-272 443.759,-268.5 433.759,-265 433.759,-272"/>
</g>
<!-- Equations of Motion\nNumerical Solution -->
<g id="node7" class="node"><title>Equations of Motion\nNumerical Solution</title>
<polygon fill="peachpuff" stroke="peachpuff" points="534,-246 444,-246 444,-210 534,-210 534,-246"/>
<text text-anchor="middle" x="489" y="-230.8" font-family="FontAwesome" font-size="9.00">Equations of Motion</text>
<text text-anchor="middle" x="489" y="-220.8" font-family="FontAwesome" font-size="9.00">Numerical Solution</text>
</g>
<!-- DynamicsSimulator&#45;&gt;Equations of Motion\nNumerical Solution -->
<g id="edge17" class="edge"><title>DynamicsSimulator&#45;&gt;Equations of Motion\nNumerical Solution</title>
<path fill="none" stroke="black" d="M408.133,-241.5C408.133,-241.5 433.759,-241.5 433.759,-241.5"/>
<polygon fill="black" stroke="black" points="433.759,-245 443.759,-241.5 433.759,-238 433.759,-245"/>
</g>
<!-- NamedBodyMap -->
<g id="node2" class="node"><title>NamedBodyMap</title>
<g id="a_node2"><a xlink:href="http://tudat.tudelft.nl/tutorials/tudatFeatures/environmentSetup/index.html#NamedBodyMap" xlink:title="NamedBodyMap" target="_top">
<polygon fill="lightblue" stroke="lightblue" points="408,-327 318,-327 318,-291 408,-291 408,-327"/>
<text text-anchor="middle" x="363" y="-306.8" font-family="FontAwesome" font-size="9.00">NamedBodyMap</text>
</a>
</g>
</g>
<!-- NamedBodyMap&#45;&gt;DynamicsSimulator -->
<g id="edge10" class="edge"><title>NamedBodyMap&#45;&gt;DynamicsSimulator</title>
<path fill="none" stroke="black" d="M363,-290.718C363,-290.718 363,-283.263 363,-283.263"/>
<polygon fill="black" stroke="black" points="366.5,-283.263 363,-273.263 359.5,-283.263 366.5,-283.263"/>
</g>
<!-- MultiArc -->
<g id="node3" class="node"><title>MultiArc</title>
<g id="a_node3"><a xlink:href="http://tudat.tudelft.nl/tutorials/tudatFeatures/propagationSetup/propagatorSettings.html#MultiArcPropagatorSettings" xlink:title="MultiArc" target="_top">
<polygon fill="lightblue" stroke="lightblue" points="232,-36 142,-36 142,-0 232,-0 232,-36"/>
<text text-anchor="middle" x="187" y="-15.8" font-family="FontAwesome" font-size="9.00">MultiArc</text>
</a>
</g>
</g>
<!-- or1 -->
<g id="node19" class="node"><title>or1</title>
<ellipse fill="white" stroke="black" cx="275" cy="-201" rx="7" ry="7"/>
<text text-anchor="middle" x="275" y="-198.8" font-family="FontAwesome" font-size="9.00">or</text>
</g>
<!-- MultiArc&#45;&gt;or1 -->
<g id="edge13" class="edge"><title>MultiArc&#45;&gt;or1</title>
<path fill="none" stroke="black" d="M232.233,-18C255.072,-18 278,-18 278,-18 278,-18 278,-184.487 278,-184.487"/>
<polygon fill="black" stroke="black" points="274.5,-184.487 278,-194.487 281.5,-184.487 274.5,-184.487"/>
</g>
<!-- RungeKuttaVariable\nStepSizeSettings -->
<g id="node4" class="node"><title>RungeKuttaVariable\nStepSizeSettings</title>
<polygon fill="lightblue" stroke="lightblue" points="232,-328 142,-328 142,-292 232,-292 232,-328"/>
<text text-anchor="middle" x="187" y="-312.8" font-family="FontAwesome" font-size="9.00">RungeKuttaVariable</text>
<text text-anchor="middle" x="187" y="-302.8" font-family="FontAwesome" font-size="9.00">StepSizeSettings</text>
</g>
<!-- or0 -->
<g id="node18" class="node"><title>or0</title>
<ellipse fill="white" stroke="black" cx="275" cy="-310" rx="7" ry="7"/>
<text text-anchor="middle" x="275" y="-307.8" font-family="FontAwesome" font-size="9.00">or</text>
</g>
<!-- RungeKuttaVariable\nStepSizeSettings&#45;&gt;or0 -->
<g id="edge16" class="edge"><title>RungeKuttaVariable\nStepSizeSettings&#45;&gt;or0</title>
<path fill="none" stroke="black" d="M232.031,-310C232.031,-310 257.714,-310 257.714,-310"/>
<polygon fill="black" stroke="black" points="257.714,-313.5 267.714,-310 257.714,-306.5 257.714,-313.5"/>
</g>
<!-- IntegratorSettings -->
<g id="node5" class="node"><title>IntegratorSettings</title>
<g id="a_node5"><a xlink:href="http://tudat.tudelft.nl/tutorials/tudatFeatures/propagationSetup/integratorSettings.html#IntegratorSettings" xlink:title="IntegratorSettings" target="_top">
<polygon fill="lightblue" stroke="lightblue" points="232,-382 142,-382 142,-346 232,-346 232,-382"/>
<text text-anchor="middle" x="187" y="-361.8" font-family="FontAwesome" font-size="9.00">IntegratorSettings</text>
</a>
</g>
</g>
<!-- IntegratorSettings&#45;&gt;or0 -->
<g id="edge14" class="edge"><title>IntegratorSettings&#45;&gt;or0</title>
<path fill="none" stroke="black" d="M232.031,-364C253.682,-364 275,-364 275,-364 275,-364 275,-327.06 275,-327.06"/>
<polygon fill="black" stroke="black" points="278.5,-327.06 275,-317.06 271.5,-327.06 278.5,-327.06"/>
</g>
<!-- Derived\nStepSizeSettings -->
<g id="node8" class="node"><title>Derived\nStepSizeSettings</title>
<g id="a_node8"><a xlink:href="http://tudat.tudelft.nl/tutorials/tudatFeatures/propagationSetup/integratorSettings.html#RungeKuttaVariableStepSizeSettings" xlink:title="Derived\nStepSizeSettings" target="_top">
<polygon fill="lightgrey" stroke="lightgrey" points="106,-506 16,-506 16,-470 106,-470 106,-506"/>
<text text-anchor="middle" x="61" y="-490.8" font-family="FontAwesome" font-size="9.00">Derived</text>
<text text-anchor="middle" x="61" y="-480.8" font-family="FontAwesome" font-size="9.00">StepSizeSettings</text>
</a>
</g>
</g>
<!-- TranslationalState -->
<g id="node9" class="node"><title>TranslationalState</title>
<g id="a_node9"><a xlink:href="http://tudat.tudelft.nl/tutorials/tudatFeatures/propagationSetup/propagatorSettings.html#TranslationalStatePropagatorSettings" xlink:title="TranslationalState" target="_top">
<polygon fill="lightgrey" stroke="lightgrey" points="106,-196 16,-196 16,-160 106,-160 106,-196"/>
<text text-anchor="middle" x="61" y="-175.8" font-family="FontAwesome" font-size="9.00">TranslationalState</text>
</a>
</g>
</g>
<!-- RotationalState -->
<g id="node10" class="node"><title>RotationalState</title>
<g id="a_node10"><a xlink:href="http://tudat.tudelft.nl/tutorials/tudatFeatures/propagationSetup/propagatorSettings.html#RotationalStatePropagatorSettings" xlink:title="RotationalState" target="_top">
<polygon fill="lightgrey" stroke="lightgrey" points="232,-196 142,-196 142,-160 232,-160 232,-196"/>
<text text-anchor="middle" x="187" y="-175.8" font-family="FontAwesome" font-size="9.00">RotationalState</text>
</a>
</g>
</g>
<!-- TranslationalState&#45;&gt;RotationalState -->
<!-- Mass -->
<g id="node11" class="node"><title>Mass</title>
<g id="a_node11"><a xlink:href="http://tudat.tudelft.nl/tutorials/tudatFeatures/propagationSetup/propagatorSettings.html#MassPropagatorSettings" xlink:title="Mass" target="_top">
<polygon fill="lightgrey" stroke="lightgrey" points="106,-142 16,-142 16,-106 106,-106 106,-142"/>
<text text-anchor="middle" x="61" y="-121.8" font-family="FontAwesome" font-size="9.00">Mass</text>
</a>
</g>
</g>
<!-- Custom -->
<g id="node12" class="node"><title>Custom</title>
<g id="a_node12"><a xlink:href="http://tudat.tudelft.nl/tutorials/tudatFeatures/propagationSetup/propagatorSettings.html#CustomPropagatorSettings" xlink:title="Custom" target="_top">
<polygon fill="lightgrey" stroke="lightgrey" points="232,-142 142,-142 142,-106 232,-106 232,-142"/>
<text text-anchor="middle" x="187" y="-121.8" font-family="FontAwesome" font-size="9.00">Custom</text>
</a>
</g>
</g>
<!-- Mass&#45;&gt;Custom -->
<!-- Mass&#45;&gt;Custom -->
<!-- Custom&#45;&gt;or1 -->
<g id="edge11" class="edge"><title>Custom&#45;&gt;or1</title>
<path fill="none" stroke="black" d="M239.75,-124C257.552,-124 273,-124 273,-124 273,-124 273,-184.167 273,-184.167"/>
<polygon fill="black" stroke="black" points="269.5,-184.167 273,-194.167 276.5,-184.167 269.5,-184.167"/>
</g>
<!-- MultiType -->
<g id="node13" class="node"><title>MultiType</title>
<g id="a_node13"><a xlink:href="http://tudat.tudelft.nl/tutorials/tudatFeatures/propagationSetup/propagatorSettings.html#MultiTypePropagatorSettings" xlink:title="MultiType" target="_top">
<polygon fill="lightgrey" stroke="lightgrey" points="106,-88 16,-88 16,-52 106,-52 106,-88"/>
<text text-anchor="middle" x="61" y="-67.8" font-family="FontAwesome" font-size="9.00">MultiType</text>
</a>
</g>
</g>
<!-- MultiType&#45;&gt;MultiArc -->
<g id="edge19" class="edge"><title>MultiType&#45;&gt;MultiArc</title>
<path fill="none" stroke="black" d="M187,-44C187,-42.0468 187,-40.0935 187,-38.1403"/>
<polygon fill="black" stroke="black" points="190.501,-46.1869 187,-36.1871 183.501,-46.1873 190.501,-46.1869"/>
</g>
<!-- integratorType -->
<g id="node14" class="node"><title>integratorType</title>
<polygon fill="lightgrey" stroke="lightgrey" points="106,-328 16,-328 16,-292 106,-292 106,-328"/>
<text text-anchor="middle" x="61" y="-307.8" font-family="FontAwesome" font-size="9.00">integratorType</text>
</g>
<!-- integratorType&#45;&gt;RungeKuttaVariable\nStepSizeSettings -->
<g id="edge4" class="edge"><title>integratorType&#45;&gt;RungeKuttaVariable\nStepSizeSettings</title>
<path fill="none" stroke="black" d="M106.133,-299.2C106.133,-299.2 131.759,-299.2 131.759,-299.2"/>
<polygon fill="black" stroke="black" points="131.759,-302.7 141.759,-299.2 131.759,-295.7 131.759,-302.7"/>
</g>
<!-- integratorType&#45;&gt;IntegratorSettings -->
<g id="edge1" class="edge"><title>integratorType&#45;&gt;IntegratorSettings</title>
<path fill="none" stroke="black" d="M106.19,-320.8C120.656,-320.8 133,-320.8 133,-320.8 133,-320.8 133,-364 133,-364 133,-364 133.892,-364 133.892,-364"/>
<polygon fill="black" stroke="black" points="131.917,-367.5 141.917,-364 131.917,-360.5 131.917,-367.5"/>
</g>
<!-- simulationStartEpoch -->
<g id="node15" class="node"><title>simulationStartEpoch</title>
<polygon fill="lightgrey" stroke="lightgrey" points="106,-436 16,-436 16,-400 106,-400 106,-436"/>
<text text-anchor="middle" x="61" y="-415.8" font-family="FontAwesome" font-size="9.00">simulationStartEpoch</text>
</g>
<!-- simulationStartEpoch&#45;&gt;RungeKuttaVariable\nStepSizeSettings -->
<g id="edge5" class="edge"><title>simulationStartEpoch&#45;&gt;RungeKuttaVariable\nStepSizeSettings</title>
<path fill="none" stroke="black" d="M106.115,-412C116.213,-412 124,-412 124,-412 124,-412 124,-313.6 124,-313.6 124,-313.6 131.885,-313.6 131.885,-313.6"/>
<polygon fill="black" stroke="black" points="131.885,-317.1 141.885,-313.6 131.885,-310.1 131.885,-317.1"/>
</g>
<!-- simulationStartEpoch&#45;&gt;IntegratorSettings -->
<g id="edge2" class="edge"><title>simulationStartEpoch&#45;&gt;IntegratorSettings</title>
<path fill="none" stroke="black" d="M106.133,-424C142.287,-424 187,-424 187,-424 187,-424 187,-392.002 187,-392.002"/>
<polygon fill="black" stroke="black" points="190.5,-392.002 187,-382.002 183.5,-392.002 190.5,-392.002"/>
</g>
<!-- (initial) stepSize -->
<g id="node16" class="node"><title>(initial) stepSize</title>
<polygon fill="lightgrey" stroke="lightgrey" points="106,-382 16,-382 16,-346 106,-346 106,-382"/>
<text text-anchor="middle" x="61" y="-361.8" font-family="FontAwesome" font-size="9.00">(initial) stepSize</text>
</g>
<!-- (initial) stepSize&#45;&gt;RungeKuttaVariable\nStepSizeSettings -->
<g id="edge6" class="edge"><title>(initial) stepSize&#45;&gt;RungeKuttaVariable\nStepSizeSettings</title>
<path fill="none" stroke="black" d="M106.083,-355C111.411,-355 115,-355 115,-355 115,-355 115,-306.4 115,-306.4 115,-306.4 131.81,-306.4 131.81,-306.4"/>
<polygon fill="black" stroke="black" points="131.81,-309.9 141.81,-306.4 131.81,-302.9 131.81,-309.9"/>
</g>
<!-- (initial) stepSize&#45;&gt;IntegratorSettings -->
<g id="edge3" class="edge"><title>(initial) stepSize&#45;&gt;IntegratorSettings</title>
<path fill="none" stroke="black" d="M106.133,-373C106.133,-373 131.759,-373 131.759,-373"/>
<polygon fill="black" stroke="black" points="131.759,-376.5 141.759,-373 131.759,-369.5 131.759,-376.5"/>
</g>
<!-- Additional \nsettings -->
<g id="node17" class="node"><title>Additional \nsettings</title>
<polygon fill="lightgrey" stroke="lightgrey" points="106,-274 16,-274 16,-238 106,-238 106,-274"/>
<text text-anchor="middle" x="61" y="-258.8" font-family="FontAwesome" font-size="9.00">Additional </text>
<text text-anchor="middle" x="61" y="-248.8" font-family="FontAwesome" font-size="9.00">settings</text>
</g>
<!-- Additional \nsettings&#45;&gt;RungeKuttaVariable\nStepSizeSettings -->
<g id="edge7" class="edge"><title>Additional \nsettings&#45;&gt;RungeKuttaVariable\nStepSizeSettings</title>
<path fill="none" stroke="black" d="M106.133,-246.75C142.287,-246.75 187,-246.75 187,-246.75 187,-246.75 187,-281.705 187,-281.705"/>
<polygon fill="black" stroke="black" points="183.5,-281.705 187,-291.705 190.5,-281.706 183.5,-281.705"/>
</g>
<!-- or0&#45;&gt;DynamicsSimulator -->
<g id="edge15" class="edge"><title>or0&#45;&gt;DynamicsSimulator</title>
<path fill="none" stroke="black" d="M273,-303.249C273,-290.523 273,-264.25 273,-264.25 273,-264.25 307.736,-264.25 307.736,-264.25"/>
<polygon fill="black" stroke="black" points="307.736,-267.75 317.736,-264.25 307.736,-260.75 307.736,-267.75"/>
</g>
<!-- or1&#45;&gt;DynamicsSimulator -->
<g id="edge12" class="edge"><title>or1&#45;&gt;DynamicsSimulator</title>
<path fill="none" stroke="black" d="M278,-207.683C278,-222.236 278,-255.5 278,-255.5 278,-255.5 307.514,-255.5 307.514,-255.5"/>
<polygon fill="black" stroke="black" points="307.514,-259 317.514,-255.5 307.514,-252 307.514,-259"/>
</g>
</g>
</svg>
