<?xml version="1.0" encoding="UTF-8" standalone="no"?>
<!DOCTYPE svg PUBLIC "-//W3C//DTD SVG 1.1//EN"
 "http://www.w3.org/Graphics/SVG/1.1/DTD/svg11.dtd">
<!-- Generated by graphviz version 2.38.0 (20140413.2041)
 -->
<!-- Title: %3 Pages: 1 -->
<svg width="526pt" height="366pt"
 viewBox="0.00 0.00 526.00 366.00" xmlns="http://www.w3.org/2000/svg" xmlns:xlink="http://www.w3.org/1999/xlink">
<g id="graph0" class="graph" transform="scale(1 1) rotate(0) translate(4 362)">
<title>%3</title>
<polygon fill="white" stroke="none" points="-4,4 -4,-362 522,-362 522,4 -4,4"/>
<g id="clust1" class="cluster"><title>clusterAccelerationType</title>
<polygon fill="none" stroke="black" stroke-dasharray="5,2" points="8,-136 8,-350 510,-350 510,-136 8,-136"/>
<text text-anchor="middle" x="259" y="-338.8" font-family="Times,serif" font-size="9.00">AccelerationType</text>
</g>
<!-- NamedBodyMap -->
<g id="node1" class="node"><title>NamedBodyMap</title>
<g id="a_node1"><a xlink:href="http://tudat.tudelft.nl/tutorials/tudatFeatures/environmentSetup/index.html#NamedBodyMap" xlink:title="NamedBodyMap" target="_top">
<polygon fill="lightblue" stroke="lightblue" points="124,-36 16,-36 16,-0 124,-0 124,-36"/>
<text text-anchor="middle" x="70" y="-15.8" font-family="Times,serif" font-size="9.00">NamedBodyMap</text>
</a>
</g>
</g>
<!-- AccelerationModel -->
<g id="node5" class="node"><title>AccelerationModel</title>
<g id="a_node5"><a xlink:href="http://tudat.tudelft.nl/tutorials/tudatFeatures/accelerationSetup/frameworkAcceleration.html##SelectedAccelerationMap" xlink:title="AccelerationModel" target="_top">
<polygon fill="lightgreen" stroke="lightgreen" points="502,-36 394,-36 394,-0 502,-0 502,-36"/>
<text text-anchor="middle" x="448" y="-15.8" font-family="Times,serif" font-size="9.00">AccelerationModel</text>
</a>
</g>
</g>
<!-- NamedBodyMap&#45;&gt;AccelerationModel -->
<g id="edge12" class="edge"><title>NamedBodyMap&#45;&gt;AccelerationModel</title>
<path fill="none" stroke="black" d="M70,-36.0555C70,-47.439 70,-60 70,-60 70,-60 448,-60 448,-60 448,-60 448,-46.0555 448,-46.0555"/>
<polygon fill="black" stroke="black" points="451.5,-46.0555 448,-36.0555 444.5,-46.0556 451.5,-46.0555"/>
</g>
<!-- bodiesToPropagate -->
<g id="node2" class="node"><title>bodiesToPropagate</title>
<polygon fill="lightblue" stroke="lightblue" points="250,-36 142,-36 142,-0 250,-0 250,-36"/>
<text text-anchor="middle" x="196" y="-15.8" font-family="Times,serif" font-size="9.00">bodiesToPropagate</text>
</g>
<!-- bodiesToPropagate&#45;&gt;AccelerationModel -->
<g id="edge10" class="edge"><title>bodiesToPropagate&#45;&gt;AccelerationModel</title>
<path fill="none" stroke="black" d="M196,-36.1432C196,-42.4611 196,-48 196,-48 196,-48 421,-48 421,-48 421,-48 421,-46.1432 421,-46.1432"/>
<polygon fill="black" stroke="black" points="424.5,-46.1432 421,-36.1432 417.5,-46.1432 424.5,-46.1432"/>
</g>
<!-- centralBodies -->
<g id="node3" class="node"><title>centralBodies</title>
<polygon fill="lightblue" stroke="lightblue" points="376,-36 268,-36 268,-0 376,-0 376,-36"/>
<text text-anchor="middle" x="322" y="-15.8" font-family="Times,serif" font-size="9.00">centralBodies</text>
</g>
<!-- centralBodies&#45;&gt;AccelerationModel -->
<g id="edge11" class="edge"><title>centralBodies&#45;&gt;AccelerationModel</title>
<path fill="none" stroke="black" d="M376.167,-18C376.167,-18 383.879,-18 383.879,-18"/>
<polygon fill="black" stroke="black" points="383.879,-21.5001 393.879,-18 383.879,-14.5001 383.879,-21.5001"/>
</g>
<!-- AccelerationSettings -->
<g id="node4" class="node"><title>AccelerationSettings</title>
<g id="a_node4"><a xlink:href="http://tudat.tudelft.nl/tutorials/tudatFeatures/accelerationSetup/frameworkAcceleration.html#AccelerationSettings" xlink:title="AccelerationSettings" target="_top">
<polygon fill="lightblue" stroke="lightblue" points="502,-108 394,-108 394,-72 502,-72 502,-108"/>
<text text-anchor="middle" x="448" y="-87.8" font-family="Times,serif" font-size="9.00">AccelerationSettings</text>
</a>
</g>
</g>
<!-- AccelerationSettings&#45;&gt;AccelerationModel -->
<g id="edge9" class="edge"><title>AccelerationSettings&#45;&gt;AccelerationModel</title>
<path fill="none" stroke="black" d="M475,-71.8314C475,-71.8314 475,-46.4133 475,-46.4133"/>
<polygon fill="black" stroke="black" points="478.5,-46.4132 475,-36.4133 471.5,-46.4133 478.5,-46.4132"/>
</g>
<!-- Undefined acceleration -->
<g id="node6" class="node"><title>Undefined acceleration</title>
<g id="a_node6"><a xlink:href="http://tudat.tudelft.nl/tutorials/tudatFeatures/accelerationSetup/frameworkAcceleration.html#AccelerationSettings" xlink:title="Undefined acceleration" target="_top">
<polygon fill="lightgrey" stroke="lightgrey" points="250,-324 142,-324 142,-288 250,-288 250,-324"/>
<text text-anchor="middle" x="196" y="-303.8" font-family="Times,serif" font-size="9.00">Undefined acceleration</text>
</a>
</g>
</g>
<!-- Central gravity -->
<g id="node7" class="node"><title>Central gravity</title>
<g id="a_node7"><a xlink:href="http://tudat.tudelft.nl/tutorials/tudatFeatures/accelerationSetup/frameworkAcceleration.html#AccelerationSettings" xlink:title="Central gravity" target="_top">
<polygon fill="lightgrey" stroke="lightgrey" points="376,-324 268,-324 268,-288 376,-288 376,-324"/>
<text text-anchor="middle" x="322" y="-303.8" font-family="Times,serif" font-size="9.00">Central gravity</text>
</a>
</g>
</g>
<!-- Undefined acceleration&#45;&gt;Central gravity -->
<!-- Third body \ncentral gravity -->
<g id="node9" class="node"><title>Third body \ncentral gravity</title>
<polygon fill="lightgrey" stroke="lightgrey" points="502,-324 394,-324 394,-288 502,-288 502,-324"/>
<text text-anchor="middle" x="448" y="-308.8" font-family="Times,serif" font-size="9.00">Third body </text>
<text text-anchor="middle" x="448" y="-298.8" font-family="Times,serif" font-size="9.00">central gravity</text>
</g>
<!-- Central gravity&#45;&gt;Third body \ncentral gravity -->
<!-- Aerodynamic -->
<g id="node8" class="node"><title>Aerodynamic</title>
<g id="a_node8"><a xlink:href="http://tudat.tudelft.nl/tutorials/tudatFeatures/accelerationSetup/frameworkAcceleration.html#MutualSphericalHarmonicAccelerationSettings" xlink:title="Aerodynamic" target="_top">
<polygon fill="lightgrey" stroke="lightgrey" points="124,-324 16,-324 16,-288 124,-288 124,-324"/>
<text text-anchor="middle" x="70" y="-303.8" font-family="Times,serif" font-size="9.00">Aerodynamic</text>
</a>
</g>
</g>
<!-- Third body spherical \nharmonic gravity -->
<g id="node10" class="node"><title>Third body spherical \nharmonic gravity</title>
<polygon fill="lightgrey" stroke="lightgrey" points="502,-252 394,-252 394,-216 502,-216 502,-252"/>
<text text-anchor="middle" x="448" y="-236.8" font-family="Times,serif" font-size="9.00">Third body spherical </text>
<text text-anchor="middle" x="448" y="-226.8" font-family="Times,serif" font-size="9.00">harmonic gravity</text>
</g>
<!-- Third body \ncentral gravity&#45;&gt;Third body spherical \nharmonic gravity -->
<!-- Third body mutual \nspherical harmonic gravity -->
<g id="node14" class="node"><title>Third body mutual \nspherical harmonic gravity</title>
<polygon fill="lightgrey" stroke="lightgrey" points="502,-180 394,-180 394,-144 502,-144 502,-180"/>
<text text-anchor="middle" x="448" y="-164.8" font-family="Times,serif" font-size="9.00">Third body mutual </text>
<text text-anchor="middle" x="448" y="-154.8" font-family="Times,serif" font-size="9.00">spherical harmonic gravity</text>
</g>
<!-- Third body spherical \nharmonic gravity&#45;&gt;Third body mutual \nspherical harmonic gravity -->
<!-- Thrust -->
<g id="node11" class="node"><title>Thrust</title>
<g id="a_node11"><a xlink:href="http://tudat.tudelft.nl/tutorials/tudatFeatures/accelerationSetup/frameworkAcceleration.html#ThrustAccelerationSettings" xlink:title="Thrust" target="_top">
<polygon fill="lightgrey" stroke="lightgrey" points="250,-252 142,-252 142,-216 250,-216 250,-252"/>
<text text-anchor="middle" x="196" y="-231.8" font-family="Times,serif" font-size="9.00">Thrust</text>
</a>
</g>
</g>
<!-- Spherical harmonic \ngravity -->
<g id="node13" class="node"><title>Spherical harmonic \ngravity</title>
<g id="a_node13"><a xlink:href="http://tudat.tudelft.nl/tutorials/tudatFeatures/accelerationSetup/frameworkAcceleration.html#SphericalHarmonicAccelerationSettings" xlink:title="Spherical harmonic \ngravity" target="_top">
<polygon fill="lightgrey" stroke="lightgrey" points="376,-252 268,-252 268,-216 376,-216 376,-252"/>
<text text-anchor="middle" x="322" y="-236.8" font-family="Times,serif" font-size="9.00">Spherical harmonic </text>
<text text-anchor="middle" x="322" y="-226.8" font-family="Times,serif" font-size="9.00">gravity</text>
</a>
</g>
</g>
<!-- Thrust&#45;&gt;Spherical harmonic \ngravity -->
<!-- Cannon ball \nradiation pressure -->
<g id="node12" class="node"><title>Cannon ball \nradiation pressure</title>
<g id="a_node12"><a xlink:href="http://tudat.tudelft.nl/tutorials/tudatFeatures/accelerationSetup/frameworkAcceleration.html#MutualSphericalHarmonicAccelerationSettings" xlink:title="Cannon ball \nradiation pressure" target="_top">
<polygon fill="lightgrey" stroke="lightgrey" points="124,-252 16,-252 16,-216 124,-216 124,-252"/>
<text text-anchor="middle" x="70" y="-236.8" font-family="Times,serif" font-size="9.00">Cannon ball </text>
<text text-anchor="middle" x="70" y="-226.8" font-family="Times,serif" font-size="9.00">radiation pressure</text>
</a>
</g>
</g>
<!-- Spherical harmonic \ngravity&#45;&gt;Third body spherical \nharmonic gravity -->
<!-- Third body mutual \nspherical harmonic gravity&#45;&gt;AccelerationSettings -->
<g id="edge8" class="edge"><title>Third body mutual \nspherical harmonic gravity&#45;&gt;AccelerationSettings</title>
<path fill="none" stroke="black" d="M448,-136.343C448,-128.845 448,-118.413 448,-118.413"/>
<polygon fill="black" stroke="black" points="451.5,-118.413 448,-108.413 444.5,-118.413 451.5,-118.413"/>
</g>
<!-- Mutual spherical \nharmonic gravity -->
<g id="node15" class="node"><title>Mutual spherical \nharmonic gravity</title>
<g id="a_node15"><a xlink:href="http://tudat.tudelft.nl/tutorials/tudatFeatures/accelerationSetup/frameworkAcceleration.html#MutualSphericalHarmonicAccelerationSettings" xlink:title="Mutual spherical \nharmonic gravity" target="_top">
<polygon fill="lightgrey" stroke="lightgrey" points="376,-180 268,-180 268,-144 376,-144 376,-180"/>
<text text-anchor="middle" x="322" y="-164.8" font-family="Times,serif" font-size="9.00">Mutual spherical </text>
<text text-anchor="middle" x="322" y="-154.8" font-family="Times,serif" font-size="9.00">harmonic gravity</text>
</a>
</g>
</g>
<!-- Relativistic correction -->
<g id="node16" class="node"><title>Relativistic correction</title>
<g id="a_node16"><a xlink:href="http://tudat.tudelft.nl/tutorials/tudatFeatures/accelerationSetup/frameworkAcceleration.html#RelativisticAccelerationCorrectionSettings" xlink:title="Relativistic correction" target="_top">
<polygon fill="lightgrey" stroke="lightgrey" points="250,-180 142,-180 142,-144 250,-144 250,-180"/>
<text text-anchor="middle" x="196" y="-159.8" font-family="Times,serif" font-size="9.00">Relativistic correction</text>
</a>
</g>
</g>
<!-- Empirical -->
<g id="node17" class="node"><title>Empirical</title>
<g id="a_node17"><a xlink:href="http://tudat.tudelft.nl/tutorials/tudatFeatures/accelerationSetup/frameworkAcceleration.html#EmpiricalAccelerationSettings" xlink:title="Empirical" target="_top">
<polygon fill="lightgrey" stroke="lightgrey" points="124,-180 16,-180 16,-144 124,-144 124,-180"/>
<text text-anchor="middle" x="70" y="-159.8" font-family="Times,serif" font-size="9.00">Empirical</text>
</a>
</g>
</g>
<!-- Additional \ninformation -->
<g id="node18" class="node"><title>Additional \ninformation</title>
<polygon fill="lightgrey" stroke="lightgrey" points="376,-108 268,-108 268,-72 376,-72 376,-108"/>
<text text-anchor="middle" x="322" y="-92.8" font-family="Times,serif" font-size="9.00">Additional </text>
<text text-anchor="middle" x="322" y="-82.8" font-family="Times,serif" font-size="9.00">information</text>
</g>
<!-- Additional \ninformation&#45;&gt;AccelerationSettings -->
<g id="edge7" class="edge"><title>Additional \ninformation&#45;&gt;AccelerationSettings</title>
<path fill="none" stroke="black" d="M376.167,-90C376.167,-90 383.879,-90 383.879,-90"/>
<polygon fill="black" stroke="black" points="383.879,-93.5001 393.879,-90 383.879,-86.5001 383.879,-93.5001"/>
</g>
</g>
</svg>
